<svg xmlns="http://www.w3.org/2000/svg" width="77.0mm" height="66.0mm" viewBox="0 0 77.0 66.0"><path d="M65.249,26.000 L72.000,26.000 A3.0,3.0 0 0 1 75.000,29.000 L75.000,37.000 A3.0,3.0 0 0 1 72.000,40.000 L65.249,40.000 A33.0,33.0 0 1 1 65.249,26.000 Z" fill="#FF6A1A"/><g id="TINTA" fill="#121014"><path d="M12.4915 15.4354V11.3766H13.1374L13.9378 13.8462H13.9435V11.3766H14.5037V15.4354H13.9378L13.0574 12.7543H13.0517V15.4354H12.4915Z M16.6703 15.504Q16.2988 15.504 16.0387 15.3096Q15.7785 15.1153 15.6413 14.6551Q15.5041 14.1949 15.5041 13.406Q15.5041 12.6057 15.6413 12.1483Q15.7785 11.691 16.0387 11.4995Q16.2988 11.308 16.6703 11.308Q17.0419 11.308 17.302 11.4995Q17.5621 11.691 17.6993 12.1483Q17.8365 12.6057 17.8365 13.406Q17.8365 14.1949 17.6993 14.6551Q17.5621 15.1153 17.302 15.3096Q17.0419 15.504 16.6703 15.504ZM16.6703 14.9724Q16.8304 14.9724 16.939 14.8552Q17.0476 14.738 17.1077 14.4464Q17.1677 14.1549 17.1677 13.6404V13.1659Q17.1677 12.6514 17.1077 12.3627Q17.0476 12.074 16.939 11.9568Q16.8304 11.8396 16.6703 11.8396Q16.5103 11.8396 16.3988 11.9568Q16.2873 12.074 16.2302 12.3627Q16.173 12.6514 16.173 13.1659V13.6404Q16.173 14.1549 16.2302 14.4436Q16.2873 14.7323 16.3988 14.8523Q16.5103 14.9724 16.6703 14.9724Z M19.3229 15.4354 18.5511 11.3766H19.2143L19.7688 14.7323L20.329 11.3766H20.9521L20.1804 15.4354H19.3229Z M21.4152 15.4354 22.2327 11.3766H23.1016L23.9248 15.4354H23.2617L23.0787 14.4579H22.2327L22.0554 15.4354H21.4152ZM22.3241 13.9376H22.9873L22.6557 12.034L22.3241 13.9376Z M26.5202 15.4354V11.9254H25.7999V11.3766H27.8922V11.9254H27.1719V15.4354H26.5202Z M28.7954 15.4354V11.3766H30.6362V11.9254H29.4471V13.0973H30.5047V13.6175H29.4471V14.8866H30.659V15.4354H28.7954Z M31.6309 15.4354V11.3766H32.6484L33.1 14.6294H33.1115L33.5631 11.3766H34.5464V15.4354H33.9575V11.9711L33.9404 11.9654L33.4087 15.4354H32.757L32.2254 11.9711H32.2025V15.4354H31.6309Z M35.6325 15.4354V11.3766H36.6615Q37.216 11.3766 37.4761 11.711Q37.7363 12.0454 37.7363 12.6057Q37.7363 13.1659 37.4761 13.506Q37.216 13.8462 36.6615 13.8462H36.2842V15.4354H35.6325ZM36.6272 11.9025H36.2842V13.326H36.6272Q37.0846 13.326 37.0846 12.7657V12.4627Q37.0846 11.9025 36.6272 11.9025Z M39.7314 15.504Q39.3598 15.504 39.0997 15.3096Q38.8396 15.1153 38.7024 14.6551Q38.5652 14.1949 38.5652 13.406Q38.5652 12.6057 38.7024 12.1483Q38.8396 11.691 39.0997 11.4995Q39.3598 11.308 39.7314 11.308Q40.103 11.308 40.3631 11.4995Q40.6232 11.691 40.7604 12.1483Q40.8976 12.6057 40.8976 13.406Q40.8976 14.1949 40.7604 14.6551Q40.6232 15.1153 40.3631 15.3096Q40.103 15.504 39.7314 15.504ZM39.7314 14.9724Q39.8914 14.9724 40.0001 14.8552Q40.1087 14.738 40.1687 14.4464Q40.2287 14.1549 40.2287 13.6404V13.1659Q40.2287 12.6514 40.1687 12.3627Q40.1087 12.074 40.0001 11.9568Q39.8914 11.8396 39.7314 11.8396Q39.5713 11.8396 39.4598 11.9568Q39.3484 12.074 39.2912 12.3627Q39.234 12.6514 39.234 13.1659V13.6404Q39.234 14.1549 39.2912 14.4436Q39.3484 14.7323 39.4598 14.8523Q39.5713 14.9724 39.7314 14.9724Z M41.898 15.4354V11.3766H42.927Q43.3214 11.3766 43.5644 11.5224Q43.8074 11.6681 43.9188 11.9197Q44.0303 12.1712 44.0303 12.4913Q44.0303 12.8572 43.896 13.1487Q43.7616 13.4403 43.4415 13.5661L44.0932 15.4354H43.3786L42.8069 13.669H42.5497V15.4354H41.898ZM42.8927 11.9025H42.5497V13.1487H42.8927Q43.1614 13.1487 43.27 13.0087Q43.3786 12.8686 43.3786 12.6114V12.4113Q43.3786 12.1769 43.2671 12.0397Q43.1557 11.9025 42.8927 11.9025Z M44.7792 15.4354 45.5967 11.3766H46.4656L47.2888 15.4354H46.6257L46.4427 14.4579H45.5967L45.4195 15.4354H44.7792ZM45.6881 13.9376H46.3513L46.0197 12.034L45.6881 13.9376Z M48.1577 15.4354V11.3766H49.0896Q49.4554 11.3766 49.7298 11.5681Q50.0042 11.7596 50.1557 12.2026Q50.3072 12.6457 50.3072 13.406Q50.3072 14.1663 50.1557 14.6094Q50.0042 15.0524 49.7298 15.2439Q49.4554 15.4354 49.0896 15.4354H48.1577ZM48.8094 14.8866H49.0324Q49.3068 14.8866 49.4754 14.6494Q49.6441 14.4121 49.6441 13.8062V13.0058Q49.6441 12.5942 49.5669 12.3598Q49.4897 12.1255 49.3525 12.0254Q49.2153 11.9254 49.0324 11.9254H48.8094V14.8866Z M50.9989 15.4354 51.8164 11.3766H52.6853L53.5085 15.4354H52.8454L52.6625 14.4579H51.8164L51.6392 15.4354H50.9989ZM51.9079 13.9376H52.571L52.2394 12.034L51.9079 13.9376Z"/><path d="M5.5032 29.4354V21.571H8.4824L10.5107 26.7899H10.5218L12.5502 21.571H15.5391V29.4354H13.4478V23.9813H13.4288L11.271 29.4354H9.6286L7.4691 23.9813H7.4509V29.4354H5.5032Z M16.1323 29.4354 19.3011 21.571H21.73L24.8988 29.4354H22.7008L21.8607 27.155L21.7207 26.7699L20.3299 23.0947H20.6339L19.2382 26.7699L19.0884 27.155L18.2533 29.4354H16.1323ZM18.0437 27.5869V26.1053H22.9692V27.5869H18.0437Z M25.4965 29.4354V21.571H27.5877V29.4354H25.4965Z M32.2342 29.5683Q31.173 29.5683 30.3675 29.2797Q29.562 28.991 29.0574 28.4347Q28.5527 27.8785 28.3782 27.0836L30.2927 26.7943Q30.4087 27.1869 30.6544 27.464Q30.9001 27.7411 31.3148 27.8822Q31.7295 28.0234 32.3299 28.0234Q32.6808 28.0234 32.9564 27.968Q33.2319 27.9126 33.4229 27.8067Q33.6139 27.7008 33.7164 27.5468Q33.819 27.3929 33.819 27.1957Q33.819 26.9223 33.6094 26.7389Q33.3999 26.5555 32.862 26.4655L31.1088 26.1625Q30.2842 26.0158 29.7306 25.7117Q29.177 25.4075 28.9054 24.9596Q28.6338 24.5116 28.6338 23.9312Q28.6338 23.1279 29.0689 22.5748Q29.504 22.0216 30.2973 21.7299Q31.0906 21.4381 32.1624 21.4381Q33.1017 21.4381 33.8401 21.6946Q34.5784 21.9512 35.0744 22.4704Q35.5704 22.9897 35.7734 23.7846L33.9041 24.0739Q33.7818 23.6765 33.5401 23.437Q33.2984 23.1975 32.9313 23.0903Q32.5642 22.9831 32.072 22.9831Q31.4446 22.9831 31.0603 23.1765Q30.6759 23.3699 30.6759 23.6973Q30.6759 23.9042 30.7767 24.0526Q30.8775 24.201 31.0882 24.299Q31.2989 24.3969 31.6032 24.4523L33.4366 24.7651Q34.2763 24.9068 34.811 25.2004Q35.3458 25.4939 35.6052 25.9443Q35.8646 26.3947 35.8646 27.0149Q35.8646 27.8479 35.4167 28.417Q34.9688 28.9861 34.1509 29.2772Q33.333 29.5683 32.2342 29.5683Z M42.5416 29.5683Q41.4242 29.5683 40.6203 29.2367Q39.8163 28.9051 39.383 28.2192Q38.9497 27.5333 38.9497 26.4633V21.571H41.041V26.2892Q41.041 26.7974 41.1699 27.1647Q41.2988 27.532 41.6267 27.7283Q41.9546 27.9246 42.5624 27.9246Q43.1592 27.9246 43.4927 27.7283Q43.8261 27.532 43.9574 27.1647Q44.0888 26.7974 44.0888 26.2892V21.571H46.1433V26.4695Q46.1433 27.5395 45.7131 28.2223Q45.2829 28.9051 44.4789 29.2367Q43.675 29.5683 42.5416 29.5683Z M47.2731 29.4354V21.571H50.2523L52.2806 26.7899H52.2917L54.32 21.571H57.309V29.4354H55.2177V23.9813H55.1987L53.0409 29.4354H51.3985L49.239 23.9813H49.2208V29.4354H47.2731Z M58.6771 26.8103 58.4224 21.571H60.4964L60.2416 26.8103H58.6771ZM58.4467 29.4354V27.5302H60.472V29.4354H58.4467Z"/><path d="M19.6077 36.4354 19.0838 34.2847H19.5613L19.8993 35.9706L20.2331 34.2847H20.6937L20.1697 36.4354H19.6077Z M21.5387 36.4861Q21.319 36.4861 21.1479 36.3784Q20.9768 36.2706 20.8817 36.0234Q20.7866 35.7763 20.7866 35.3622Q20.7866 34.9481 20.8838 34.7009Q20.981 34.4537 21.15 34.3439Q21.319 34.234 21.5387 34.234Q21.7796 34.234 21.9232 34.3439Q22.0669 34.4537 22.1366 34.6333Q22.2063 34.8129 22.219 35.022Q22.2317 35.2312 22.2148 35.4298H21.2599V35.5819Q21.2599 35.8903 21.3338 36.0086Q21.4077 36.127 21.5472 36.127Q21.6782 36.127 21.731 36.0213Q21.7838 35.9157 21.8092 35.6664L22.2275 35.7002Q22.2021 36.1227 22.012 36.3044Q21.8218 36.4861 21.5387 36.4861ZM21.2599 35.1171V35.1298H21.8049V35.1044Q21.8049 34.8044 21.7415 34.6946Q21.6782 34.5847 21.5472 34.5847Q21.412 34.5847 21.3359 34.7009Q21.2599 34.8171 21.2599 35.1171Z M22.5148 36.4354V33.4354H22.988V36.4354H22.5148Z M23.7697 36.4692Q23.5246 36.4692 23.3873 36.315Q23.25 36.1608 23.25 35.8819Q23.25 35.603 23.3958 35.4467Q23.5415 35.2903 23.8035 35.1974L24.1923 35.0537V34.8805Q24.1923 34.7199 24.131 34.6608Q24.0697 34.6016 23.9683 34.6016Q23.8585 34.6016 23.793 34.6777Q23.7275 34.7537 23.7063 34.9565L23.2711 34.9016Q23.3049 34.5763 23.4845 34.4051Q23.6641 34.234 23.9894 34.234Q24.6655 34.234 24.6655 34.9354V35.8861Q24.6655 35.9917 24.6676 36.1016Q24.6697 36.2115 24.6824 36.4354H24.243L24.2176 36.203Q24.15 36.3382 24.0338 36.4037Q23.9176 36.4692 23.7697 36.4692ZM23.7148 35.8439Q23.7148 36.0044 23.7718 36.0678Q23.8289 36.1312 23.9345 36.1312Q24.0528 36.1312 24.1225 36.053Q24.1923 35.9748 24.1923 35.8523V35.3748L23.981 35.4636Q23.8585 35.5185 23.7866 35.5988Q23.7148 35.6791 23.7148 35.8439Z M26.0472 36.4692Q25.8021 36.4692 25.6648 36.315Q25.5275 36.1608 25.5275 35.8819Q25.5275 35.603 25.6732 35.4467Q25.819 35.2903 26.081 35.1974L26.4697 35.0537V34.8805Q26.4697 34.7199 26.4085 34.6608Q26.3472 34.6016 26.2458 34.6016Q26.1359 34.6016 26.0704 34.6777Q26.0049 34.7537 25.9838 34.9565L25.5486 34.9016Q25.5824 34.5763 25.762 34.4051Q25.9415 34.234 26.2669 34.234Q26.943 34.234 26.943 34.9354V35.8861Q26.943 35.9917 26.9451 36.1016Q26.9472 36.2115 26.9599 36.4354H26.5204L26.4951 36.203Q26.4275 36.3382 26.3113 36.4037Q26.1951 36.4692 26.0472 36.4692ZM25.9923 35.8439Q25.9923 36.0044 26.0493 36.0678Q26.1063 36.1312 26.212 36.1312Q26.3303 36.1312 26.4 36.053Q26.4697 35.9748 26.4697 35.8523V35.3748L26.2585 35.4636Q26.1359 35.5185 26.0641 35.5988Q25.9923 35.6791 25.9923 35.8439Z M27.281 36.4354V34.2847H27.75V34.572Q27.8176 34.3946 27.9254 34.3185Q28.0331 34.2425 28.1514 34.2425Q28.181 34.2425 28.2148 34.2467Q28.2486 34.2509 28.2866 34.2636V34.6861Q28.1387 34.6692 28.0183 34.6882Q27.8979 34.7072 27.8261 34.7939Q27.7542 34.8805 27.7542 35.0706V36.4354H27.281Z M29.1148 36.4861Q28.8908 36.4861 28.7176 36.3784Q28.5444 36.2706 28.4472 36.0213Q28.35 35.772 28.35 35.3579Q28.35 34.9439 28.4472 34.6988Q28.5444 34.4537 28.7176 34.3439Q28.8908 34.234 29.1148 34.234Q29.343 34.234 29.5141 34.3439Q29.6852 34.4537 29.7824 34.6988Q29.8796 34.9439 29.8796 35.3579Q29.8796 35.772 29.7824 36.0213Q29.6852 36.2706 29.5141 36.3784Q29.343 36.4861 29.1148 36.4861ZM29.1148 36.1185Q29.25 36.1185 29.3239 36.0002Q29.3979 35.8819 29.3979 35.5819V35.1382Q29.3979 34.8382 29.3239 34.7199Q29.25 34.6016 29.1148 34.6016Q28.9796 34.6016 28.9056 34.7199Q28.8317 34.8382 28.8317 35.1382V35.5819Q28.8317 35.8819 28.9056 36.0002Q28.9796 36.1185 29.1148 36.1185Z M30.1627 36.4354V34.2847H30.6317V34.5213Q30.7754 34.234 31.0754 34.234Q31.2106 34.234 31.3183 34.3079Q31.4261 34.3819 31.4725 34.5425Q31.5528 34.3819 31.6732 34.3079Q31.7937 34.234 31.9415 34.234Q32.0556 34.234 32.1613 34.2847Q32.2669 34.3354 32.3366 34.4664Q32.4063 34.5974 32.4063 34.8382V36.4354H31.9331V34.9101Q31.9331 34.7495 31.8824 34.684Q31.8317 34.6185 31.7345 34.6185Q31.6415 34.6185 31.5803 34.6819Q31.519 34.7453 31.519 34.927V36.4354H31.0458V34.9101Q31.0458 34.7453 30.9908 34.6819Q30.9359 34.6185 30.8514 34.6185Q30.7669 34.6185 30.7014 34.6777Q30.6359 34.7368 30.6359 34.9227V36.4354H30.1627Z M33.1796 36.4692Q32.9345 36.4692 32.7972 36.315Q32.6599 36.1608 32.6599 35.8819Q32.6599 35.603 32.8056 35.4467Q32.9514 35.2903 33.2134 35.1974L33.6021 35.0537V34.8805Q33.6021 34.7199 33.5408 34.6608Q33.4796 34.6016 33.3782 34.6016Q33.2683 34.6016 33.2028 34.6777Q33.1373 34.7537 33.1162 34.9565L32.681 34.9016Q32.7148 34.5763 32.8944 34.4051Q33.0739 34.234 33.3993 34.234Q34.0754 34.234 34.0754 34.9354V35.8861Q34.0754 35.9917 34.0775 36.1016Q34.0796 36.2115 34.0923 36.4354H33.6528L33.6275 36.203Q33.5599 36.3382 33.4437 36.4037Q33.3275 36.4692 33.1796 36.4692ZM33.1246 35.8439Q33.1246 36.0044 33.1817 36.0678Q33.2387 36.1312 33.3444 36.1312Q33.4627 36.1312 33.5324 36.053Q33.6021 35.9748 33.6021 35.8523V35.3748L33.3908 35.4636Q33.2683 35.5185 33.1965 35.5988Q33.1246 35.6791 33.1246 35.8439ZM33.5092 34.0185 33.2345 33.9425 33.5768 33.2199 33.9063 33.3467 33.5092 34.0185Z M35.0218 36.4861Q34.7725 36.4861 34.6394 36.353Q34.5063 36.2199 34.5063 35.9537V34.6439H34.2782V34.2847H34.5232L34.5782 33.7312H34.9796V34.2847H35.3514V34.6439H34.9796V35.8608Q34.9796 35.9917 35.0387 36.0425Q35.0979 36.0932 35.1908 36.0932Q35.2331 36.0932 35.2775 36.0889Q35.3218 36.0847 35.381 36.0678V36.4227Q35.2035 36.4861 35.0218 36.4861Z M35.6092 33.9678V33.5199H36.0824V33.9678H35.6092ZM35.6092 36.4354V34.2847H36.0824V36.4354H35.6092Z M37.1176 36.4861Q36.8979 36.4861 36.7289 36.3763Q36.5599 36.2664 36.4627 36.0192Q36.3655 35.772 36.3655 35.3622Q36.3655 34.9481 36.4627 34.7009Q36.5599 34.4537 36.7289 34.3439Q36.8979 34.234 37.1176 34.234Q37.3077 34.234 37.4577 34.3143Q37.6077 34.3946 37.7007 34.5868Q37.7937 34.7791 37.8021 35.1129L37.388 35.1382Q37.3711 34.8467 37.3162 34.7241Q37.2613 34.6016 37.1261 34.6016Q36.9866 34.6016 36.9169 34.722Q36.8472 34.8425 36.8472 35.1425V35.5777Q36.8472 35.8734 36.9169 35.9939Q36.9866 36.1143 37.1261 36.1143Q37.2655 36.1143 37.3183 35.9917Q37.3711 35.8692 37.388 35.5777L37.8063 35.603Q37.7979 35.9368 37.7049 36.1291Q37.612 36.3213 37.4599 36.4037Q37.3077 36.4861 37.1176 36.4861Z M38.5162 36.4692Q38.2711 36.4692 38.1338 36.315Q37.9965 36.1608 37.9965 35.8819Q37.9965 35.603 38.1423 35.4467Q38.288 35.2903 38.55 35.1974L38.9387 35.0537V34.8805Q38.9387 34.7199 38.8775 34.6608Q38.8162 34.6016 38.7148 34.6016Q38.6049 34.6016 38.5394 34.6777Q38.4739 34.7537 38.4528 34.9565L38.0176 34.9016Q38.0514 34.5763 38.231 34.4051Q38.4106 34.234 38.7359 34.234Q39.412 34.234 39.412 34.9354V35.8861Q39.412 35.9917 39.4141 36.1016Q39.4162 36.2115 39.4289 36.4354H38.9894L38.9641 36.203Q38.8965 36.3382 38.7803 36.4037Q38.6641 36.4692 38.5162 36.4692ZM38.4613 35.8439Q38.4613 36.0044 38.5183 36.0678Q38.5754 36.1312 38.681 36.1312Q38.7993 36.1312 38.869 36.053Q38.9387 35.9748 38.9387 35.8523V35.3748L38.7275 35.4636Q38.6049 35.5185 38.5331 35.5988Q38.4613 35.6791 38.4613 35.8439Z M40.3289 35.4044V34.9439H40.7979V35.4044H40.3289Z M41.7232 36.4354V34.2847H42.1923V34.572Q42.2599 34.3946 42.3676 34.3185Q42.4754 34.2425 42.5937 34.2425Q42.6232 34.2425 42.657 34.2467Q42.6908 34.2509 42.7289 34.2636V34.6861Q42.581 34.6692 42.4606 34.6882Q42.3401 34.7072 42.2683 34.7939Q42.1965 34.8805 42.1965 35.0706V36.4354H41.7232Z M43.5486 36.4861Q43.3289 36.4861 43.1577 36.3784Q42.9866 36.2706 42.8915 36.0234Q42.7965 35.7763 42.7965 35.3622Q42.7965 34.9481 42.8937 34.7009Q42.9908 34.4537 43.1599 34.3439Q43.3289 34.234 43.5486 34.234Q43.7894 34.234 43.9331 34.3439Q44.0768 34.4537 44.1465 34.6333Q44.2162 34.8129 44.2289 35.022Q44.2415 35.2312 44.2246 35.4298H43.2697V35.5819Q43.2697 35.8903 43.3437 36.0086Q43.4176 36.127 43.557 36.127Q43.688 36.127 43.7408 36.0213Q43.7937 35.9157 43.819 35.6664L44.2373 35.7002Q44.212 36.1227 44.0218 36.3044Q43.8317 36.4861 43.5486 36.4861ZM43.2697 35.1171V35.1298H43.8148V35.1044Q43.8148 34.8044 43.7514 34.6946Q43.688 34.5847 43.557 34.5847Q43.4218 34.5847 43.3458 34.7009Q43.2697 34.8171 43.2697 35.1171Z M44.6176 36.4354V34.6439H44.3894V34.2847H44.6176V34.0439Q44.6176 33.6974 44.7887 33.541Q44.9599 33.3847 45.2134 33.3847Q45.357 33.3847 45.4965 33.427V33.7777Q45.4373 33.7692 45.393 33.7629Q45.3486 33.7565 45.3106 33.7565Q45.2134 33.7565 45.1521 33.8157Q45.0908 33.8748 45.0908 34.0227V34.2847H45.4246V34.6439H45.0908V36.4354H44.6176Z M45.6275 33.9678V33.5199H46.1007V33.9678H45.6275ZM45.6275 36.4354V34.2847H46.1007V36.4354H45.6275Z M46.443 36.4354V33.4354H46.9162V36.4354H46.443Z"/><path d="M17.1906 43.4354V40.8354H17.8497Q18.2049 40.8354 18.3715 41.0496Q18.5382 41.2639 18.5382 41.6227Q18.5382 41.9816 18.3715 42.1995Q18.2049 42.4174 17.8497 42.4174H17.608V43.4354H17.1906ZM17.8277 41.1723H17.608V42.0841H17.8277Q18.1207 42.0841 18.1207 41.7253V41.5312Q18.1207 41.1723 17.8277 41.1723Z M19.0508 43.4354V40.8354H20.23V41.187H19.4683V41.9377H20.1458V42.2709H19.4683V43.0839H20.2446V43.4354H19.0508Z M21.4055 43.4794Q21.0503 43.4794 20.8727 43.2596Q20.6951 43.0399 20.7207 42.6151L21.1015 42.5968Q21.0942 42.8532 21.162 42.996Q21.2297 43.1388 21.3982 43.1425Q21.5044 43.1425 21.563 43.0912Q21.6215 43.0399 21.6435 42.9612Q21.6655 42.8825 21.6655 42.8056Q21.6655 42.6444 21.5977 42.5492Q21.53 42.454 21.4018 42.3551L21.1748 42.1903Q20.9917 42.0548 20.8708 41.8846Q20.75 41.7143 20.75 41.4543Q20.75 41.1357 20.9331 40.9636Q21.1162 40.7915 21.3945 40.7915Q21.7094 40.7915 21.8761 40.9764Q22.0427 41.1613 22.0354 41.5788L21.6545 41.5971Q21.6618 41.3481 21.5959 41.2364Q21.53 41.1247 21.3908 41.1247Q21.2773 41.1247 21.2151 41.2034Q21.1528 41.2822 21.1528 41.425Q21.1528 41.5678 21.2187 41.663Q21.2846 41.7582 21.4201 41.8608L21.6692 42.0439Q21.8486 42.1794 21.9585 42.3478Q22.0683 42.5163 22.0683 42.7763Q22.0683 43.1388 21.8834 43.3091Q21.6985 43.4794 21.4055 43.4794Z M23.3061 43.4794Q23.068 43.4794 22.9014 43.3548Q22.7348 43.2303 22.6469 42.9356Q22.559 42.6408 22.559 42.1354Q22.559 41.6227 22.6469 41.3298Q22.7348 41.0368 22.9014 40.9141Q23.068 40.7915 23.3061 40.7915Q23.5441 40.7915 23.7107 40.9141Q23.8773 41.0368 23.9652 41.3298Q24.0531 41.6227 24.0531 42.1354Q24.0531 42.6408 23.9652 42.9356Q23.8773 43.2303 23.7107 43.3548Q23.5441 43.4794 23.3061 43.4794ZM23.3061 43.1388Q23.4086 43.1388 23.4782 43.0637Q23.5477 42.9886 23.5862 42.8019Q23.6246 42.6151 23.6246 42.2856V41.9816Q23.6246 41.652 23.5862 41.4671Q23.5477 41.2822 23.4782 41.2071Q23.4086 41.132 23.3061 41.132Q23.2035 41.132 23.1321 41.2071Q23.0607 41.2822 23.0241 41.4671Q22.9875 41.652 22.9875 41.9816V42.2856Q22.9875 42.6151 23.0241 42.8001Q23.0607 42.985 23.1321 43.0619Q23.2035 43.1388 23.3061 43.1388Z M25.4373 43.4354V40.8354H25.8548V43.0839H26.5945V43.4354H25.4373Z M27.0999 43.4354V40.8354H27.5173V43.4354H27.0999ZM27.3892 40.6413 27.1511 40.5754 27.4148 40.0408 27.7004 40.1506 27.3892 40.6413Z M28.832 43.4794Q28.5976 43.4794 28.4292 43.3548Q28.2607 43.2303 28.171 42.9356Q28.0813 42.6408 28.0813 42.1354Q28.0813 41.6227 28.171 41.3298Q28.2607 41.0368 28.4292 40.9141Q28.5976 40.7915 28.832 40.7915Q29.07 40.7915 29.2385 40.9141Q29.4069 41.0368 29.4966 41.3298Q29.5863 41.6227 29.5863 42.1354Q29.5863 42.6005 29.5113 42.8825Q29.4362 43.1644 29.2934 43.3072L29.5461 43.6478L29.2201 43.8675L28.9785 43.4684Q28.9089 43.4794 28.832 43.4794ZM28.832 43.1388Q28.9345 43.1388 29.0059 43.0637Q29.0773 42.9886 29.1158 42.8019Q29.1542 42.6151 29.1542 42.2856V41.9816Q29.1542 41.652 29.1158 41.4671Q29.0773 41.2822 29.0059 41.2071Q28.9345 41.132 28.832 41.132Q28.7331 41.132 28.6617 41.2071Q28.5903 41.2822 28.5518 41.4671Q28.5134 41.652 28.5134 41.9816V42.2856Q28.5134 42.6151 28.5518 42.8001Q28.5903 42.985 28.6617 43.0619Q28.7331 43.1388 28.832 43.1388Z M30.8277 43.4794Q30.4945 43.4794 30.3206 43.3054Q30.1466 43.1315 30.1466 42.7763V40.8354H30.5641V42.7763Q30.5641 43.1168 30.8387 43.1168Q31.117 43.1168 31.117 42.7763V40.8354H31.5162V42.7763Q31.5162 43.1315 31.3404 43.3054Q31.1646 43.4794 30.8277 43.4794Z M32.1314 43.4354V40.8354H32.5489V43.4354H32.1314Z M33.1677 43.4354V40.8354H33.7646Q33.999 40.8354 34.1748 40.9581Q34.3506 41.0808 34.4476 41.3646Q34.5446 41.6484 34.5446 42.1354Q34.5446 42.6225 34.4476 42.9063Q34.3506 43.1901 34.1748 43.3127Q33.999 43.4354 33.7646 43.4354H33.1677ZM33.5852 43.0839H33.728Q33.9038 43.0839 34.0118 42.9319Q34.1199 42.7799 34.1199 42.3917V41.8791Q34.1199 41.6154 34.0704 41.4653Q34.021 41.3151 33.9331 41.251Q33.8452 41.187 33.728 41.187H33.5852V43.0839Z M35.8007 43.4794Q35.5627 43.4794 35.3961 43.3548Q35.2294 43.2303 35.1415 42.9356Q35.0537 42.6408 35.0537 42.1354Q35.0537 41.6227 35.1415 41.3298Q35.2294 41.0368 35.3961 40.9141Q35.5627 40.7915 35.8007 40.7915Q36.0387 40.7915 36.2054 40.9141Q36.372 41.0368 36.4599 41.3298Q36.5477 41.6227 36.5477 42.1354Q36.5477 42.6408 36.4599 42.9356Q36.372 43.2303 36.2054 43.3548Q36.0387 43.4794 35.8007 43.4794ZM35.8007 43.1388Q35.9032 43.1388 35.9728 43.0637Q36.0424 42.9886 36.0808 42.8019Q36.1193 42.6151 36.1193 42.2856V41.9816Q36.1193 41.652 36.0808 41.4671Q36.0424 41.2822 35.9728 41.2071Q35.9032 41.132 35.8007 41.132Q35.6982 41.132 35.6268 41.2071Q35.5554 41.2822 35.5187 41.4671Q35.4821 41.652 35.4821 41.9816V42.2856Q35.4821 42.6151 35.5187 42.8001Q35.5554 42.985 35.6268 43.0619Q35.6982 43.1388 35.8007 43.1388Z M38.1277 43.4354V42.9622L38.9897 41.6044Q39.1925 41.2833 39.3137 41.0157Q39.4348 40.7481 39.4348 40.4495Q39.4348 40.1622 39.3418 40.027Q39.2489 39.8917 39.0855 39.8917Q38.8827 39.8917 38.7785 40.0889Q38.6742 40.2861 38.7024 40.7875L38.0883 40.7706Q38.0207 40.0777 38.3052 39.7227Q38.5897 39.3678 39.0855 39.3678Q39.5869 39.3678 39.832 39.6636Q40.077 39.9594 40.077 40.427Q40.077 40.7199 39.9982 40.9594Q39.9193 41.1988 39.7982 41.4101Q39.677 41.6213 39.5418 41.8354L38.8658 42.8946H40.0658V43.4354H38.1277Z M41.7446 43.503Q41.1813 43.503 40.9024 43.0044Q40.6235 42.5058 40.6235 41.4354Q40.6235 40.3706 40.9024 39.8692Q41.1813 39.3678 41.7446 39.3678Q42.308 39.3678 42.5841 39.8692Q42.8601 40.3706 42.8601 41.4354Q42.8601 42.5058 42.5841 43.0044Q42.308 43.503 41.7446 43.503ZM41.7446 42.9791Q41.8911 42.9791 41.9925 42.8608Q42.0939 42.7425 42.1503 42.4608Q42.2066 42.1791 42.2066 41.6946V41.1763Q42.2066 40.6861 42.1503 40.4044Q42.0939 40.1227 41.9925 40.0072Q41.8911 39.8917 41.7446 39.8917Q41.5982 39.8917 41.4939 40.0101Q41.3897 40.1284 41.3362 40.4072Q41.2827 40.6861 41.2827 41.1763V41.6946Q41.2827 42.1791 41.3362 42.4608Q41.3897 42.7425 41.4939 42.8608Q41.5982 42.9791 41.7446 42.9791Z M44.3925 43.503Q43.8292 43.503 43.5503 43.0044Q43.2714 42.5058 43.2714 41.4354Q43.2714 40.3706 43.5503 39.8692Q43.8292 39.3678 44.3925 39.3678Q44.9559 39.3678 45.232 39.8692Q45.508 40.3706 45.508 41.4354Q45.508 42.5058 45.232 43.0044Q44.9559 43.503 44.3925 43.503ZM44.3925 42.9791Q44.539 42.9791 44.6404 42.8608Q44.7418 42.7425 44.7982 42.4608Q44.8545 42.1791 44.8545 41.6946V41.1763Q44.8545 40.6861 44.7982 40.4044Q44.7418 40.1227 44.6404 40.0072Q44.539 39.8917 44.3925 39.8917Q44.2461 39.8917 44.1418 40.0101Q44.0376 40.1284 43.9841 40.4072Q43.9306 40.6861 43.9306 41.1763V41.6946Q43.9306 42.1791 43.9841 42.4608Q44.0376 42.7425 44.1418 42.8608Q44.2461 42.9791 44.3925 42.9791Z M47.6376 44.4326Q47.0911 44.4326 46.8376 44.2382Q46.5841 44.0439 46.5841 43.7509Q46.5841 43.5537 46.7137 43.3819Q46.8432 43.2101 47.108 43.1199Q46.9728 43.0467 46.908 42.9312Q46.8432 42.8157 46.8432 42.6974Q46.8432 42.5734 46.8996 42.4636Q46.9559 42.3537 47.0461 42.2692Q46.6461 42.0213 46.6461 41.4636Q46.6461 41.041 46.8968 40.7706Q47.1475 40.5002 47.6263 40.5002Q47.9249 40.5002 48.1446 40.6129Q48.2348 40.427 48.3615 40.3368Q48.4883 40.2467 48.6348 40.2467Q48.7024 40.2467 48.77 40.2636V40.7706Q48.6686 40.7594 48.5785 40.7706Q48.4883 40.7819 48.4151 40.8326Q48.6179 41.0861 48.6179 41.4636Q48.6179 41.8917 48.3615 42.1565Q48.1052 42.4213 47.6263 42.4213Q47.4855 42.4213 47.3672 42.3988Q47.3334 42.4608 47.3334 42.5284Q47.3334 42.6861 47.5869 42.7368L48.1165 42.8382Q48.4827 42.9115 48.6461 43.1086Q48.8094 43.3058 48.8094 43.5706Q48.8094 43.9932 48.4911 44.2129Q48.1728 44.4326 47.6376 44.4326ZM47.6263 42.0213Q47.8235 42.0213 47.908 41.8777Q47.9925 41.734 47.9925 41.4579Q47.9925 41.1875 47.908 41.0439Q47.8235 40.9002 47.6263 40.9002Q47.4292 40.9002 47.3475 41.0467Q47.2658 41.1932 47.2658 41.4579Q47.2658 41.7453 47.3503 41.8833Q47.4348 42.0213 47.6263 42.0213ZM47.1193 43.6551Q47.1193 43.8354 47.2658 43.9199Q47.4123 44.0044 47.677 44.0044Q47.9531 44.0044 48.108 43.9199Q48.263 43.8354 48.263 43.6777Q48.263 43.5537 48.17 43.472Q48.077 43.3903 47.8686 43.3509L47.4292 43.2833Q47.1193 43.4072 47.1193 43.6551Z"/><path d="M16.8439 49.076Q16.5363 49.076 16.3758 48.9154Q16.2152 48.7548 16.2152 48.427V46.6354H16.6006V48.427Q16.6006 48.7413 16.8541 48.7413Q17.111 48.7413 17.111 48.427V46.6354H17.4794V48.427Q17.4794 48.7548 17.3172 48.9154Q17.1549 49.076 16.8439 49.076Z M18.2501 49.076Q17.9527 49.076 17.8192 48.907Q17.6856 48.7379 17.689 48.4777L18.0101 48.4675Q18.0135 48.7954 18.2501 48.7954Q18.3482 48.7954 18.3989 48.743Q18.4496 48.6906 18.4496 48.6061Q18.4496 48.5148 18.3921 48.4591Q18.3346 48.4033 18.2366 48.3492L18.0811 48.2647Q17.902 48.1667 17.8141 48.0416Q17.7262 47.9165 17.7262 47.7475Q17.7262 47.5278 17.8715 47.401Q18.0169 47.2743 18.2434 47.2743Q18.5206 47.2743 18.6473 47.4264Q18.7741 47.5785 18.7673 47.8422L18.4462 47.8489Q18.4428 47.6901 18.3904 47.6225Q18.338 47.5548 18.2468 47.5548Q18.1521 47.5548 18.1065 47.6022Q18.0608 47.6495 18.0608 47.7205Q18.0608 47.8016 18.1065 47.854Q18.1521 47.9064 18.2501 47.9639L18.4496 48.0788Q18.6152 48.1734 18.7031 48.2816Q18.791 48.3898 18.791 48.5757Q18.791 48.8022 18.6507 48.9391Q18.5104 49.076 18.2501 49.076Z M19.5583 49.076Q19.3825 49.076 19.2456 48.9898Q19.1087 48.9036 19.0327 48.7058Q18.9566 48.5081 18.9566 48.1768Q18.9566 47.8456 19.0344 47.6478Q19.1121 47.4501 19.2473 47.3622Q19.3825 47.2743 19.5583 47.2743Q19.751 47.2743 19.8659 47.3622Q19.9808 47.4501 20.0366 47.5937Q20.0924 47.7374 20.1025 47.9047Q20.1127 48.072 20.0992 48.2309H19.3352V48.3526Q19.3352 48.5994 19.3944 48.694Q19.4535 48.7886 19.5651 48.7886Q19.6699 48.7886 19.7121 48.7041Q19.7544 48.6196 19.7746 48.4202L20.1093 48.4472Q20.089 48.7853 19.9369 48.9306Q19.7848 49.076 19.5583 49.076ZM19.3352 47.9808V47.9909H19.7713V47.9706Q19.7713 47.7306 19.7206 47.6427Q19.6699 47.5548 19.5651 47.5548Q19.4569 47.5548 19.3961 47.6478Q19.3352 47.7408 19.3352 47.9808Z M21.2721 49.076Q21.1369 49.076 21.0237 48.9898Q20.9104 48.9036 20.8428 48.7058Q20.7752 48.5081 20.7752 48.1768Q20.7752 47.8388 20.8428 47.6427Q20.9104 47.4467 21.0254 47.3605Q21.1403 47.2743 21.2789 47.2743Q21.3803 47.2743 21.4631 47.3216Q21.5459 47.3689 21.6034 47.4737V46.6354H21.982V49.0354H21.6068V48.863Q21.5527 48.9746 21.4665 49.0253Q21.3803 49.076 21.2721 49.076ZM21.1606 48.3763Q21.1606 48.5858 21.2163 48.6839Q21.2721 48.7819 21.3769 48.7819Q21.4715 48.7819 21.5375 48.7109Q21.6034 48.6399 21.6034 48.4337V47.9368Q21.6034 47.7137 21.5375 47.6394Q21.4715 47.565 21.3769 47.565Q21.2721 47.565 21.2163 47.663Q21.1606 47.761 21.1606 47.974V48.3763Z M22.8135 49.076Q22.6377 49.076 22.5008 48.9898Q22.3639 48.9036 22.2879 48.7058Q22.2118 48.5081 22.2118 48.1768Q22.2118 47.8456 22.2896 47.6478Q22.3673 47.4501 22.5025 47.3622Q22.6377 47.2743 22.8135 47.2743Q23.0062 47.2743 23.1211 47.3622Q23.2361 47.4501 23.2918 47.5937Q23.3476 47.7374 23.3577 47.9047Q23.3679 48.072 23.3544 48.2309H22.5904V48.3526Q22.5904 48.5994 22.6496 48.694Q22.7087 48.7886 22.8203 48.7886Q22.9251 48.7886 22.9673 48.7041Q23.0096 48.6196 23.0299 48.4202L23.3645 48.4472Q23.3442 48.7853 23.1921 48.9306Q23.04 49.076 22.8135 49.076ZM22.5904 47.9808V47.9909H23.0265V47.9706Q23.0265 47.7306 22.9758 47.6427Q22.9251 47.5548 22.8203 47.5548Q22.7121 47.5548 22.6513 47.6478Q22.5904 47.7408 22.5904 47.9808Z M23.5944 49.0354V47.3148H23.9696V47.521Q24.0304 47.3926 24.1301 47.3334Q24.2299 47.2743 24.3414 47.2743Q24.5206 47.2743 24.6254 47.396Q24.7301 47.5177 24.7301 47.7644V49.0354H24.3515V47.8286Q24.3515 47.6901 24.3059 47.6326Q24.2603 47.5751 24.1758 47.5751Q24.0946 47.5751 24.0338 47.6309Q23.973 47.6867 23.973 47.8354V49.0354H23.5944Z M25.4907 49.076Q25.2913 49.076 25.1848 48.9695Q25.0783 48.863 25.0783 48.6501V47.6022H24.8958V47.3148H25.0918L25.1358 46.872H25.4569V47.3148H25.7544V47.6022H25.4569V48.5757Q25.4569 48.6805 25.5042 48.721Q25.5515 48.7616 25.6259 48.7616Q25.6597 48.7616 25.6952 48.7582Q25.7307 48.7548 25.778 48.7413V49.0253Q25.6361 49.076 25.4907 49.076Z M25.9606 49.0354V47.3148H26.3358V47.5447Q26.3899 47.4027 26.4761 47.3419Q26.5623 47.281 26.6569 47.281Q26.6806 47.281 26.7076 47.2844Q26.7346 47.2878 26.7651 47.2979V47.636Q26.6468 47.6225 26.5504 47.6377Q26.4541 47.6529 26.3966 47.7222Q26.3392 47.7915 26.3392 47.9436V49.0354H25.9606Z M27.4276 49.076Q27.2485 49.076 27.1099 48.9898Q26.9713 48.9036 26.8935 48.7041Q26.8158 48.5047 26.8158 48.1734Q26.8158 47.8422 26.8935 47.6461Q26.9713 47.4501 27.1099 47.3622Q27.2485 47.2743 27.4276 47.2743Q27.6101 47.2743 27.747 47.3622Q27.8839 47.4501 27.9617 47.6461Q28.0394 47.8422 28.0394 48.1734Q28.0394 48.5047 27.9617 48.7041Q27.8839 48.9036 27.747 48.9898Q27.6101 49.076 27.4276 49.076ZM27.4276 48.7819Q27.5358 48.7819 27.5949 48.6872Q27.6541 48.5926 27.6541 48.3526V47.9977Q27.6541 47.7577 27.5949 47.663Q27.5358 47.5684 27.4276 47.5684Q27.3194 47.5684 27.2603 47.663Q27.2011 47.7577 27.2011 47.9977V48.3526Q27.2011 48.5926 27.2603 48.6872Q27.3194 48.7819 27.4276 48.7819Z M29.1989 49.076Q29.0637 49.076 28.9504 48.9898Q28.8372 48.9036 28.7696 48.7058Q28.702 48.5081 28.702 48.1768Q28.702 47.8388 28.7696 47.6427Q28.8372 47.4467 28.9521 47.3605Q29.067 47.2743 29.2056 47.2743Q29.307 47.2743 29.3899 47.3216Q29.4727 47.3689 29.5301 47.4737V46.6354H29.9087V49.0354H29.5335V48.863Q29.4794 48.9746 29.3932 49.0253Q29.307 49.076 29.1989 49.076ZM29.0873 48.3763Q29.0873 48.5858 29.1431 48.6839Q29.1989 48.7819 29.3037 48.7819Q29.3983 48.7819 29.4642 48.7109Q29.5301 48.6399 29.5301 48.4337V47.9368Q29.5301 47.7137 29.4642 47.6394Q29.3983 47.565 29.3037 47.565Q29.1989 47.565 29.1431 47.663Q29.0873 47.761 29.0873 47.974V48.3763Z M30.747 49.076Q30.5679 49.076 30.4293 48.9898Q30.2907 48.9036 30.213 48.7041Q30.1352 48.5047 30.1352 48.1734Q30.1352 47.8422 30.213 47.6461Q30.2907 47.4501 30.4293 47.3622Q30.5679 47.2743 30.747 47.2743Q30.9296 47.2743 31.0665 47.3622Q31.2034 47.4501 31.2811 47.6461Q31.3589 47.8422 31.3589 48.1734Q31.3589 48.5047 31.2811 48.7041Q31.2034 48.9036 31.0665 48.9898Q30.9296 49.076 30.747 49.076ZM30.747 48.7819Q30.8552 48.7819 30.9144 48.6872Q30.9735 48.5926 30.9735 48.3526V47.9977Q30.9735 47.7577 30.9144 47.663Q30.8552 47.5684 30.747 47.5684Q30.6389 47.5684 30.5797 47.663Q30.5206 47.7577 30.5206 47.9977V48.3526Q30.5206 48.5926 30.5797 48.6872Q30.6389 48.7819 30.747 48.7819Z M32.6231 49.076Q32.4473 49.076 32.3121 48.9881Q32.1769 48.9002 32.0992 48.7025Q32.0214 48.5047 32.0214 48.1768Q32.0214 47.8456 32.0992 47.6478Q32.1769 47.4501 32.3121 47.3622Q32.4473 47.2743 32.6231 47.2743Q32.7752 47.2743 32.8952 47.3385Q33.0152 47.4027 33.0896 47.5565Q33.1639 47.7103 33.1707 47.9774L32.8394 47.9977Q32.8259 47.7644 32.782 47.6664Q32.738 47.5684 32.6299 47.5684Q32.5183 47.5684 32.4625 47.6647Q32.4068 47.761 32.4068 48.001V48.3492Q32.4068 48.5858 32.4625 48.6822Q32.5183 48.7785 32.6299 48.7785Q32.7414 48.7785 32.7837 48.6805Q32.8259 48.5825 32.8394 48.3492L33.1741 48.3695Q33.1673 48.6365 33.093 48.7903Q33.0186 48.9441 32.8969 49.0101Q32.7752 49.076 32.6231 49.076Z M33.9515 49.076Q33.7724 49.076 33.6338 48.9898Q33.4952 48.9036 33.4175 48.7041Q33.3397 48.5047 33.3397 48.1734Q33.3397 47.8422 33.4175 47.6461Q33.4952 47.4501 33.6338 47.3622Q33.7724 47.2743 33.9515 47.2743Q34.1341 47.2743 34.271 47.3622Q34.4079 47.4501 34.4856 47.6461Q34.5634 47.8422 34.5634 48.1734Q34.5634 48.5047 34.4856 48.7041Q34.4079 48.9036 34.271 48.9898Q34.1341 49.076 33.9515 49.076ZM33.9515 48.7819Q34.0597 48.7819 34.1189 48.6872Q34.178 48.5926 34.178 48.3526V47.9977Q34.178 47.7577 34.1189 47.663Q34.0597 47.5684 33.9515 47.5684Q33.8434 47.5684 33.7842 47.663Q33.7251 47.7577 33.7251 47.9977V48.3526Q33.7251 48.5926 33.7842 48.6872Q33.8434 48.7819 33.9515 48.7819Z M34.7899 49.5932V47.3148H35.1617V47.5109Q35.2665 47.2743 35.5031 47.2743Q35.6383 47.2743 35.7499 47.3605Q35.8614 47.4467 35.929 47.6444Q35.9966 47.8422 35.9966 48.1768Q35.9966 48.5081 35.929 48.7058Q35.8614 48.9036 35.7482 48.9898Q35.6349 49.076 35.4963 49.076Q35.3915 49.076 35.3087 49.0303Q35.2259 48.9847 35.1685 48.8867V49.5932H34.7899ZM35.1685 48.4168Q35.1685 48.6264 35.2327 48.7041Q35.2969 48.7819 35.3915 48.7819Q35.4997 48.7819 35.5555 48.6856Q35.6113 48.5892 35.6113 48.3729V47.9774Q35.6113 47.761 35.5555 47.663Q35.4997 47.565 35.3915 47.565Q35.2969 47.565 35.2327 47.6394Q35.1685 47.7137 35.1685 47.9132V48.4168Z M36.7876 49.076Q36.6085 49.076 36.4699 48.9898Q36.3313 48.9036 36.2535 48.7041Q36.1758 48.5047 36.1758 48.1734Q36.1758 47.8422 36.2535 47.6461Q36.3313 47.4501 36.4699 47.3622Q36.6085 47.2743 36.7876 47.2743Q36.9701 47.2743 37.107 47.3622Q37.2439 47.4501 37.3217 47.6461Q37.3994 47.8422 37.3994 48.1734Q37.3994 48.5047 37.3217 48.7041Q37.2439 48.9036 37.107 48.9898Q36.9701 49.076 36.7876 49.076ZM36.7876 48.7819Q36.8958 48.7819 36.9549 48.6872Q37.0141 48.5926 37.0141 48.3526V47.9977Q37.0141 47.7577 36.9549 47.663Q36.8958 47.5684 36.7876 47.5684Q36.6794 47.5684 36.6203 47.663Q36.5611 47.7577 36.5611 47.9977V48.3526Q36.5611 48.5926 36.6203 48.6872Q36.6794 48.7819 36.7876 48.7819Z M38.1228 49.0354V46.6354H38.5082V47.663H38.9848V46.6354H39.3701V49.0354H38.9848V47.9875H38.5082V49.0354H38.1228Z M40.3132 49.076Q40.0935 49.076 39.9397 48.961Q39.7859 48.8461 39.7048 48.574Q39.6237 48.3019 39.6237 47.8354Q39.6237 47.3622 39.7048 47.0917Q39.7859 46.8213 39.9397 46.7081Q40.0935 46.5948 40.3132 46.5948Q40.533 46.5948 40.6868 46.7081Q40.8406 46.8213 40.9217 47.0917Q41.0028 47.3622 41.0028 47.8354Q41.0028 48.3019 40.9217 48.574Q40.8406 48.8461 40.6868 48.961Q40.533 49.076 40.3132 49.076ZM40.3132 48.7616Q40.4079 48.7616 40.4721 48.6923Q40.5363 48.623 40.5718 48.4506Q40.6073 48.2782 40.6073 47.974V47.6934Q40.6073 47.3892 40.5718 47.2185Q40.5363 47.0478 40.4721 46.9785Q40.4079 46.9092 40.3132 46.9092Q40.2186 46.9092 40.1527 46.9785Q40.0868 47.0478 40.053 47.2185Q40.0192 47.3892 40.0192 47.6934V47.974Q40.0192 48.2782 40.053 48.4489Q40.0868 48.6196 40.1527 48.6906Q40.2186 48.7616 40.3132 48.7616Z M41.2563 49.0354V46.6354H41.6417V48.7109H42.3245V49.0354H41.2563Z M43.0715 49.076Q42.8518 49.076 42.698 48.961Q42.5442 48.8461 42.4631 48.574Q42.382 48.3019 42.382 47.8354Q42.382 47.3622 42.4631 47.0917Q42.5442 46.8213 42.698 46.7081Q42.8518 46.5948 43.0715 46.5948Q43.2913 46.5948 43.4451 46.7081Q43.5989 46.8213 43.68 47.0917Q43.7611 47.3622 43.7611 47.8354Q43.7611 48.3019 43.68 48.574Q43.5989 48.8461 43.4451 48.961Q43.2913 49.076 43.0715 49.076ZM43.0715 48.7616Q43.1662 48.7616 43.2304 48.6923Q43.2946 48.623 43.3301 48.4506Q43.3656 48.2782 43.3656 47.974V47.6934Q43.3656 47.3892 43.3301 47.2185Q43.2946 47.0478 43.2304 46.9785Q43.1662 46.9092 43.0715 46.9092Q42.9769 46.9092 42.911 46.9785Q42.8451 47.0478 42.8113 47.2185Q42.7775 47.3892 42.7775 47.6934V47.974Q42.7775 48.2782 42.8113 48.4489Q42.8451 48.6196 42.911 48.6906Q42.9769 48.7616 43.0715 48.7616Z M44.0146 49.0354V46.6354H45.093V46.9599H44.4V47.7036H45.049V48.0112H44.4V49.0354H44.0146Z M45.9211 49.076Q45.7014 49.076 45.5476 48.961Q45.3938 48.8461 45.3127 48.574Q45.2315 48.3019 45.2315 47.8354Q45.2315 47.3622 45.3127 47.0917Q45.3938 46.8213 45.5476 46.7081Q45.7014 46.5948 45.9211 46.5948Q46.1408 46.5948 46.2946 46.7081Q46.4485 46.8213 46.5296 47.0917Q46.6107 47.3622 46.6107 47.8354Q46.6107 48.3019 46.5296 48.574Q46.4485 48.8461 46.2946 48.961Q46.1408 49.076 45.9211 49.076ZM45.9211 48.7616Q46.0158 48.7616 46.08 48.6923Q46.1442 48.623 46.1797 48.4506Q46.2152 48.2782 46.2152 47.974V47.6934Q46.2152 47.3892 46.1797 47.2185Q46.1442 47.0478 46.08 46.9785Q46.0158 46.9092 45.9211 46.9092Q45.8265 46.9092 45.7606 46.9785Q45.6946 47.0478 45.6608 47.2185Q45.627 47.3892 45.627 47.6934V47.974Q45.627 48.2782 45.6608 48.4489Q45.6946 48.6196 45.7606 48.6906Q45.8265 48.7616 45.9211 48.7616Z M47.1008 49.0354V46.9599H46.6749V46.6354H47.9121V46.9599H47.4862V49.0354H47.1008Z M48.1082 49.0354V46.6354H49.1966V46.9599H48.4935V47.6529H49.1189V47.9605H48.4935V48.7109H49.2101V49.0354H48.1082Z M49.4096 49.0354V48.667H49.7848V49.0354H49.4096Z"/><path d="M16.3132 53.4354V51.0354H16.9217Q17.1549 51.0354 17.2986 51.1216Q17.4423 51.2078 17.5082 51.3565Q17.5741 51.5053 17.5741 51.6946Q17.5741 51.9109 17.4946 52.0833Q17.4152 52.2557 17.2259 52.3301L17.6113 53.4354H17.1887L16.8507 52.3909H16.6986V53.4354H16.3132ZM16.9014 51.3464H16.6986V52.0833H16.9014Q17.0603 52.0833 17.1245 52.0005Q17.1887 51.9177 17.1887 51.7656V51.6472Q17.1887 51.5086 17.1228 51.4275Q17.0569 51.3464 16.9014 51.3464Z M18.2975 53.476Q18.1217 53.476 17.9848 53.3898Q17.8479 53.3036 17.7718 53.1058Q17.6958 52.9081 17.6958 52.5768Q17.6958 52.2456 17.7735 52.0478Q17.8513 51.8501 17.9865 51.7622Q18.1217 51.6743 18.2975 51.6743Q18.4901 51.6743 18.6051 51.7622Q18.72 51.8501 18.7758 51.9937Q18.8315 52.1374 18.8417 52.3047Q18.8518 52.472 18.8383 52.6309H18.0744V52.7526Q18.0744 52.9994 18.1335 53.094Q18.1927 53.1886 18.3042 53.1886Q18.409 53.1886 18.4513 53.1041Q18.4935 53.0196 18.5138 52.8202L18.8485 52.8472Q18.8282 53.1853 18.6761 53.3306Q18.5239 53.476 18.2975 53.476ZM18.0744 52.3808V52.3909H18.5104V52.3706Q18.5104 52.1306 18.4597 52.0427Q18.409 51.9548 18.3042 51.9548Q18.1961 51.9548 18.1352 52.0478Q18.0744 52.1408 18.0744 52.3808Z M19.5583 53.476Q19.3589 53.476 19.2524 53.3695Q19.1459 53.263 19.1459 53.0501V52.0022H18.9634V51.7148H19.1594L19.2034 51.272H19.5245V51.7148H19.822V52.0022H19.5245V52.9757Q19.5245 53.0805 19.5718 53.121Q19.6192 53.1616 19.6935 53.1616Q19.7273 53.1616 19.7628 53.1582Q19.7983 53.1548 19.8456 53.1413V53.4253Q19.7037 53.476 19.5583 53.476Z M20.0282 51.4613V51.103H20.4068V51.4613H20.0282ZM20.0282 53.4354V51.7148H20.4068V53.4354H20.0282Z M20.6806 53.4354V51.7148H21.0558V51.9447Q21.1099 51.8027 21.1961 51.7419Q21.2823 51.681 21.3769 51.681Q21.4006 51.681 21.4276 51.6844Q21.4546 51.6878 21.4851 51.6979V52.036Q21.3668 52.0225 21.2704 52.0377Q21.1741 52.0529 21.1166 52.1222Q21.0592 52.1915 21.0592 52.3436V53.4354H20.6806Z M22.1408 53.476Q21.9651 53.476 21.8282 53.3898Q21.6913 53.3036 21.6152 53.1058Q21.5392 52.9081 21.5392 52.5768Q21.5392 52.2456 21.6169 52.0478Q21.6946 51.8501 21.8299 51.7622Q21.9651 51.6743 22.1408 51.6743Q22.3335 51.6743 22.4485 51.7622Q22.5634 51.8501 22.6192 51.9937Q22.6749 52.1374 22.6851 52.3047Q22.6952 52.472 22.6817 52.6309H21.9177V52.7526Q21.9177 52.9994 21.9769 53.094Q22.0361 53.1886 22.1476 53.1886Q22.2524 53.1886 22.2946 53.1041Q22.3369 53.0196 22.3572 52.8202L22.6918 52.8472Q22.6715 53.1853 22.5194 53.3306Q22.3673 53.476 22.1408 53.476ZM21.9177 52.3808V52.3909H22.3538V52.3706Q22.3538 52.1306 22.3031 52.0427Q22.2524 51.9548 22.1476 51.9548Q22.0394 51.9548 21.9786 52.0478Q21.9177 52.1408 21.9177 52.3808Z M23.9662 53.476Q23.787 53.476 23.6485 53.3898Q23.5099 53.3036 23.4321 53.1041Q23.3544 52.9047 23.3544 52.5734Q23.3544 52.2422 23.4321 52.0461Q23.5099 51.8501 23.6485 51.7622Q23.787 51.6743 23.9662 51.6743Q24.1487 51.6743 24.2856 51.7622Q24.4225 51.8501 24.5003 52.0461Q24.578 52.2422 24.578 52.5734Q24.578 52.9047 24.5003 53.1041Q24.4225 53.3036 24.2856 53.3898Q24.1487 53.476 23.9662 53.476ZM23.9662 53.1819Q24.0744 53.1819 24.1335 53.0872Q24.1927 52.9926 24.1927 52.7526V52.3977Q24.1927 52.1577 24.1335 52.063Q24.0744 51.9684 23.9662 51.9684Q23.858 51.9684 23.7989 52.063Q23.7397 52.1577 23.7397 52.3977V52.7526Q23.7397 52.9926 23.7989 53.0872Q23.858 53.1819 23.9662 53.1819Z M25.7746 53.476Q25.4772 53.476 25.3437 53.307Q25.2101 53.1379 25.2135 52.8777L25.5346 52.8675Q25.538 53.1954 25.7746 53.1954Q25.8727 53.1954 25.9234 53.143Q25.9741 53.0906 25.9741 53.0061Q25.9741 52.9148 25.9166 52.8591Q25.8592 52.8033 25.7611 52.7492L25.6056 52.6647Q25.4265 52.5667 25.3386 52.4416Q25.2507 52.3165 25.2507 52.1475Q25.2507 51.9278 25.3961 51.801Q25.5414 51.6743 25.7679 51.6743Q26.0451 51.6743 26.1718 51.8264Q26.2986 51.9785 26.2918 52.2422L25.9707 52.2489Q25.9673 52.0901 25.9149 52.0225Q25.8625 51.9548 25.7713 51.9548Q25.6766 51.9548 25.631 52.0022Q25.5854 52.0495 25.5854 52.1205Q25.5854 52.2016 25.631 52.254Q25.6766 52.3064 25.7746 52.3639L25.9741 52.4788Q26.1397 52.5734 26.2276 52.6816Q26.3155 52.7898 26.3155 52.9757Q26.3155 53.2022 26.1752 53.3391Q26.0349 53.476 25.7746 53.476Z M27.0828 53.476Q26.907 53.476 26.7701 53.3898Q26.6332 53.3036 26.5572 53.1058Q26.4811 52.9081 26.4811 52.5768Q26.4811 52.2456 26.5589 52.0478Q26.6366 51.8501 26.7718 51.7622Q26.907 51.6743 27.0828 51.6743Q27.2755 51.6743 27.3904 51.7622Q27.5054 51.8501 27.5611 51.9937Q27.6169 52.1374 27.627 52.3047Q27.6372 52.472 27.6237 52.6309H26.8597V52.7526Q26.8597 52.9994 26.9189 53.094Q26.978 53.1886 27.0896 53.1886Q27.1944 53.1886 27.2366 53.1041Q27.2789 53.0196 27.2992 52.8202L27.6338 52.8472Q27.6135 53.1853 27.4614 53.3306Q27.3093 53.476 27.0828 53.476ZM26.8597 52.3808V52.3909H27.2958V52.3706Q27.2958 52.1306 27.2451 52.0427Q27.1944 51.9548 27.0896 51.9548Q26.9814 51.9548 26.9206 52.0478Q26.8597 52.1408 26.8597 52.3808Z M27.8637 53.4354V51.0354H28.2423V53.4354H27.8637Z M29.0772 53.476Q28.898 53.476 28.7594 53.3898Q28.6208 53.3036 28.5431 53.1041Q28.4654 52.9047 28.4654 52.5734Q28.4654 52.2422 28.5431 52.0461Q28.6208 51.8501 28.7594 51.7622Q28.898 51.6743 29.0772 51.6743Q29.2597 51.6743 29.3966 51.7622Q29.5335 51.8501 29.6113 52.0461Q29.689 52.2422 29.689 52.5734Q29.689 52.9047 29.6113 53.1041Q29.5335 53.3036 29.3966 53.3898Q29.2597 53.476 29.0772 53.476ZM29.0772 53.1819Q29.1854 53.1819 29.2445 53.0872Q29.3037 52.9926 29.3037 52.7526V52.3977Q29.3037 52.1577 29.2445 52.063Q29.1854 51.9684 29.0772 51.9684Q28.969 51.9684 28.9099 52.063Q28.8507 52.1577 28.8507 52.3977V52.7526Q28.8507 52.9926 28.9099 53.0872Q28.969 53.1819 29.0772 53.1819Z M30.7504 53.4625Q30.5544 53.4625 30.4445 53.3391Q30.3346 53.2157 30.3346 52.9926Q30.3346 52.7695 30.4513 52.6444Q30.5679 52.5194 30.7775 52.445L31.0885 52.3301V52.1915Q31.0885 52.063 31.0394 52.0157Q30.9904 51.9684 30.9093 51.9684Q30.8214 51.9684 30.769 52.0292Q30.7166 52.0901 30.6997 52.2523L30.3515 52.2084Q30.3786 51.9481 30.5223 51.8112Q30.6659 51.6743 30.9262 51.6743Q31.467 51.6743 31.467 52.2354V52.996Q31.467 53.0805 31.4687 53.1684Q31.4704 53.2563 31.4806 53.4354H31.129L31.1087 53.2495Q31.0546 53.3577 30.9617 53.4101Q30.8687 53.4625 30.7504 53.4625ZM30.7065 52.9622Q30.7065 53.0906 30.7521 53.1413Q30.7977 53.192 30.8823 53.192Q30.9769 53.192 31.0327 53.1295Q31.0885 53.067 31.0885 52.9689V52.587L30.9194 52.6579Q30.8214 52.7019 30.7639 52.7661Q30.7065 52.8303 30.7065 52.9622Z M31.7375 53.4354V51.7148H32.1127V51.921Q32.1735 51.7926 32.2732 51.7334Q32.373 51.6743 32.4845 51.6743Q32.6637 51.6743 32.7685 51.796Q32.8732 51.9177 32.8732 52.1644V53.4354H32.4946V52.2286Q32.4946 52.0901 32.449 52.0326Q32.4034 51.9751 32.3189 51.9751Q32.2377 51.9751 32.1769 52.0309Q32.1161 52.0867 32.1161 52.2354V53.4354H31.7375Z M33.6338 53.476Q33.4344 53.476 33.3279 53.3695Q33.2214 53.263 33.2214 53.0501V52.0022H33.0389V51.7148H33.2349L33.2789 51.272H33.6V51.7148H33.8975V52.0022H33.6V52.9757Q33.6 53.0805 33.6473 53.121Q33.6946 53.1616 33.769 53.1616Q33.8028 53.1616 33.8383 53.1582Q33.8738 53.1548 33.9211 53.1413V53.4253Q33.7792 53.476 33.6338 53.476Z M34.6242 53.476Q34.4485 53.476 34.3115 53.3898Q34.1746 53.3036 34.0986 53.1058Q34.0225 52.9081 34.0225 52.5768Q34.0225 52.2456 34.1003 52.0478Q34.178 51.8501 34.3132 51.7622Q34.4485 51.6743 34.6242 51.6743Q34.8169 51.6743 34.9318 51.7622Q35.0468 51.8501 35.1025 51.9937Q35.1583 52.1374 35.1685 52.3047Q35.1786 52.472 35.1651 52.6309H34.4011V52.7526Q34.4011 52.9994 34.4603 53.094Q34.5194 53.1886 34.631 53.1886Q34.7358 53.1886 34.778 53.1041Q34.8203 53.0196 34.8406 52.8202L35.1752 52.8472Q35.1549 53.1853 35.0028 53.3306Q34.8507 53.476 34.6242 53.476ZM34.4011 52.3808V52.3909H34.8372V52.3706Q34.8372 52.1306 34.7865 52.0427Q34.7358 51.9548 34.631 51.9548Q34.5228 51.9548 34.462 52.0478Q34.4011 52.1408 34.4011 52.3808Z M35.8918 53.476Q35.5944 53.476 35.4608 53.307Q35.3273 53.1379 35.3307 52.8777L35.6518 52.8675Q35.6552 53.1954 35.8918 53.1954Q35.9899 53.1954 36.0406 53.143Q36.0913 53.0906 36.0913 53.0061Q36.0913 52.9148 36.0338 52.8591Q35.9763 52.8033 35.8783 52.7492L35.7228 52.6647Q35.5437 52.5667 35.4558 52.4416Q35.3679 52.3165 35.3679 52.1475Q35.3679 51.9278 35.5132 51.801Q35.6586 51.6743 35.8851 51.6743Q36.1623 51.6743 36.289 51.8264Q36.4158 51.9785 36.409 52.2422L36.0879 52.2489Q36.0845 52.0901 36.0321 52.0225Q35.9797 51.9548 35.8885 51.9548Q35.7938 51.9548 35.7482 52.0022Q35.7025 52.0495 35.7025 52.1205Q35.7025 52.2016 35.7482 52.254Q35.7938 52.3064 35.8918 52.3639L36.0913 52.4788Q36.2569 52.5734 36.3448 52.6816Q36.4327 52.7898 36.4327 52.9757Q36.4327 53.2022 36.2924 53.3391Q36.1521 53.476 35.8918 53.476Z M37.5786 53.476Q37.4434 53.476 37.3301 53.3898Q37.2169 53.3036 37.1493 53.1058Q37.0817 52.9081 37.0817 52.5768Q37.0817 52.2388 37.1493 52.0427Q37.2169 51.8467 37.3318 51.7605Q37.4468 51.6743 37.5854 51.6743Q37.6868 51.6743 37.7696 51.7216Q37.8524 51.7689 37.9099 51.8737V51.0354H38.2885V53.4354H37.9132V53.263Q37.8592 53.3746 37.773 53.4253Q37.6868 53.476 37.5786 53.476ZM37.467 52.7763Q37.467 52.9858 37.5228 53.0839Q37.5786 53.1819 37.6834 53.1819Q37.778 53.1819 37.8439 53.1109Q37.9099 53.0399 37.9099 52.8337V52.3368Q37.9099 52.1137 37.8439 52.0394Q37.778 51.965 37.6834 51.965Q37.5786 51.965 37.5228 52.063Q37.467 52.161 37.467 52.374V52.7763Z M39.12 53.476Q38.9442 53.476 38.8073 53.3898Q38.6704 53.3036 38.5944 53.1058Q38.5183 52.9081 38.5183 52.5768Q38.5183 52.2456 38.5961 52.0478Q38.6738 51.8501 38.809 51.7622Q38.9442 51.6743 39.12 51.6743Q39.3127 51.6743 39.4276 51.7622Q39.5425 51.8501 39.5983 51.9937Q39.6541 52.1374 39.6642 52.3047Q39.6744 52.472 39.6608 52.6309H38.8969V52.7526Q38.8969 52.9994 38.9561 53.094Q39.0152 53.1886 39.1268 53.1886Q39.2315 53.1886 39.2738 53.1041Q39.3161 53.0196 39.3363 52.8202L39.671 52.8472Q39.6507 53.1853 39.4986 53.3306Q39.3465 53.476 39.12 53.476ZM38.8969 52.3808V52.3909H39.333V52.3706Q39.333 52.1306 39.2823 52.0427Q39.2315 51.9548 39.1268 51.9548Q39.0186 51.9548 38.9577 52.0478Q38.8969 52.1408 38.8969 52.3808Z M40.7358 53.4625Q40.5397 53.4625 40.4299 53.3391Q40.32 53.2157 40.32 52.9926Q40.32 52.7695 40.4366 52.6444Q40.5532 52.5194 40.7628 52.445L41.0738 52.3301V52.1915Q41.0738 52.063 41.0248 52.0157Q40.9758 51.9684 40.8946 51.9684Q40.8068 51.9684 40.7544 52.0292Q40.702 52.0901 40.6851 52.2523L40.3369 52.2084Q40.3639 51.9481 40.5076 51.8112Q40.6513 51.6743 40.9115 51.6743Q41.4524 51.6743 41.4524 52.2354V52.996Q41.4524 53.0805 41.4541 53.1684Q41.4558 53.2563 41.4659 53.4354H41.1144L41.0941 53.2495Q41.04 53.3577 40.947 53.4101Q40.8541 53.4625 40.7358 53.4625ZM40.6918 52.9622Q40.6918 53.0906 40.7375 53.1413Q40.7831 53.192 40.8676 53.192Q40.9623 53.192 41.018 53.1295Q41.0738 53.067 41.0738 52.9689V52.587L40.9048 52.6579Q40.8068 52.7019 40.7493 52.7661Q40.6918 52.8303 40.6918 52.9622Z M42.2772 53.476Q42.1014 53.476 41.9662 53.3881Q41.831 53.3002 41.7532 53.1025Q41.6755 52.9047 41.6755 52.5768Q41.6755 52.2456 41.7532 52.0478Q41.831 51.8501 41.9662 51.7622Q42.1014 51.6743 42.2772 51.6743Q42.4293 51.6743 42.5493 51.7385Q42.6693 51.8027 42.7437 51.9565Q42.818 52.1103 42.8248 52.3774L42.4935 52.3977Q42.48 52.1644 42.4361 52.0664Q42.3921 51.9684 42.2839 51.9684Q42.1724 51.9684 42.1166 52.0647Q42.0608 52.161 42.0608 52.401V52.7492Q42.0608 52.9858 42.1166 53.0822Q42.1724 53.1785 42.2839 53.1785Q42.3955 53.1785 42.4377 53.0805Q42.48 52.9825 42.4935 52.7492L42.8282 52.7695Q42.8214 53.0365 42.747 53.1903Q42.6727 53.3441 42.551 53.4101Q42.4293 53.476 42.2772 53.476Z M43.5989 53.476Q43.4231 53.476 43.2862 53.3898Q43.1493 53.3036 43.0732 53.1058Q42.9972 52.9081 42.9972 52.5768Q42.9972 52.2456 43.0749 52.0478Q43.1527 51.8501 43.2879 51.7622Q43.4231 51.6743 43.5989 51.6743Q43.7915 51.6743 43.9065 51.7622Q44.0214 51.8501 44.0772 51.9937Q44.133 52.1374 44.1431 52.3047Q44.1532 52.472 44.1397 52.6309H43.3758V52.7526Q43.3758 52.9994 43.4349 53.094Q43.4941 53.1886 43.6056 53.1886Q43.7104 53.1886 43.7527 53.1041Q43.7949 53.0196 43.8152 52.8202L44.1499 52.8472Q44.1296 53.1853 43.9775 53.3306Q43.8254 53.476 43.5989 53.476ZM43.3758 52.3808V52.3909H43.8118V52.3706Q43.8118 52.1306 43.7611 52.0427Q43.7104 51.9548 43.6056 51.9548Q43.4975 51.9548 43.4366 52.0478Q43.3758 52.1408 43.3758 52.3808Z M44.3797 53.4354V51.7148H44.7549V51.921Q44.8158 51.7926 44.9155 51.7334Q45.0152 51.6743 45.1268 51.6743Q45.3059 51.6743 45.4107 51.796Q45.5155 51.9177 45.5155 52.1644V53.4354H45.1369V52.2286Q45.1369 52.0901 45.0913 52.0326Q45.0456 51.9751 44.9611 51.9751Q44.88 51.9751 44.8192 52.0309Q44.7583 52.0867 44.7583 52.2354V53.4354H44.3797Z M46.2355 53.476Q46.1003 53.476 45.987 53.3898Q45.8738 53.3036 45.8062 53.1058Q45.7386 52.9081 45.7386 52.5768Q45.7386 52.2388 45.8062 52.0427Q45.8738 51.8467 45.9887 51.7605Q46.1037 51.6743 46.2423 51.6743Q46.3437 51.6743 46.4265 51.7216Q46.5093 51.7689 46.5668 51.8737V51.0354H46.9454V53.4354H46.5701V53.263Q46.5161 53.3746 46.4299 53.4253Q46.3437 53.476 46.2355 53.476ZM46.1239 52.7763Q46.1239 52.9858 46.1797 53.0839Q46.2355 53.1819 46.3403 53.1819Q46.4349 53.1819 46.5008 53.1109Q46.5668 53.0399 46.5668 52.8337V52.3368Q46.5668 52.1137 46.5008 52.0394Q46.4349 51.965 46.3403 51.965Q46.2355 51.965 46.1797 52.063Q46.1239 52.161 46.1239 52.374V52.7763Z M47.7769 53.476Q47.6011 53.476 47.4642 53.3898Q47.3273 53.3036 47.2513 53.1058Q47.1752 52.9081 47.1752 52.5768Q47.1752 52.2456 47.253 52.0478Q47.3307 51.8501 47.4659 51.7622Q47.6011 51.6743 47.7769 51.6743Q47.9696 51.6743 48.0845 51.7622Q48.1994 51.8501 48.2552 51.9937Q48.311 52.1374 48.3211 52.3047Q48.3313 52.472 48.3177 52.6309H47.5538V52.7526Q47.5538 52.9994 47.613 53.094Q47.6721 53.1886 47.7837 53.1886Q47.8885 53.1886 47.9307 53.1041Q47.973 53.0196 47.9932 52.8202L48.3279 52.8472Q48.3076 53.1853 48.1555 53.3306Q48.0034 53.476 47.7769 53.476ZM47.5538 52.3808V52.3909H47.9899V52.3706Q47.9899 52.1306 47.9392 52.0427Q47.8885 51.9548 47.7837 51.9548Q47.6755 51.9548 47.6146 52.0478Q47.5538 52.1408 47.5538 52.3808Z M48.5577 53.4354V51.7148H48.933V51.9447Q48.987 51.8027 49.0732 51.7419Q49.1594 51.681 49.2541 51.681Q49.2777 51.681 49.3048 51.6844Q49.3318 51.6878 49.3623 51.6979V52.036Q49.2439 52.0225 49.1476 52.0377Q49.0513 52.0529 48.9938 52.1222Q48.9363 52.1915 48.9363 52.3436V53.4354H48.5577Z M49.3115 53.4354V53.067H49.6868V53.4354H49.3115Z"/></g><path d="M65.249,26.000 L72.000,26.000 A3.0,3.0 0 0 1 75.000,29.000 L75.000,37.000 A3.0,3.0 0 0 1 72.000,40.000 L65.249,40.000 A33.0,33.0 0 1 1 65.249,26.000 Z" fill="none" stroke="#E5004F" stroke-width="0.2"/></svg>