<svg xmlns="http://www.w3.org/2000/svg" width="74.0mm" height="74.0mm" viewBox="0 0 74.0 74.0"><rect width="74.0" height="74.0" fill="#FF4FA0"/><g id="TINTA" fill="#121014"><path d="M5,27 h0.61 v16 h-0.61 Z M5.9,27 h0.46 v16 h-0.46 Z M6.57,27 h0.27 v16 h-0.27 Z M7.2,27 h0.19 v16 h-0.19 Z M7.6,27 h0.46 v16 h-0.46 Z M8.27,27 h0.27 v16 h-0.27 Z M8.75,27 h0.46 v16 h-0.46 Z M9.5,27 h0.46 v16 h-0.46 Z M10.25,27 h0.19 v16 h-0.19 Z M10.65,27 h0.27 v16 h-0.27 Z M11.44,27 h0.61 v16 h-0.61 Z M12.57,27 h0.19 v16 h-0.19 Z M13.12,27 h0.19 v16 h-0.19 Z M13.83,27 h0.19 v16 h-0.19 Z M14.23,27 h0.33 v16 h-0.33 Z M14.77,27 h0.33 v16 h-0.33 Z M15.31,27 h0.19 v16 h-0.19 Z M16.02,27 h0.61 v16 h-0.61 Z M16.99,27 h0.27 v16 h-0.27 Z M17.62,27 h0.33 v16 h-0.33 Z M18.16,27 h0.46 v16 h-0.46 Z M18.91,27 h0.61 v16 h-0.61 Z M19.81,27 h0.33 v16 h-0.33 Z M20.35,27 h0.27 v16 h-0.27 Z M20.83,27 h0.46 v16 h-0.46 Z M21.58,27 h0.27 v16 h-0.27 Z M22.37,27 h0.46 v16 h-0.46 Z M23.12,27 h0.46 v16 h-0.46 Z M23.94,27 h0.33 v16 h-0.33 Z M24.79,27 h0.61 v16 h-0.61 Z M25.69,27 h0.46 v16 h-0.46 Z M26.44,27 h0.33 v16 h-0.33 Z M27.29,27 h0.27 v16 h-0.27 Z M27.85,27 h0.19 v16 h-0.19 Z M28.25,27 h0.19 v16 h-0.19 Z M28.8,27 h0.46 v16 h-0.46 Z M29.47,27 h0.33 v16 h-0.33 Z M30.32,27 h0.46 v16 h-0.46 Z M31.07,27 h0.19 v16 h-0.19 Z M31.62,27 h0.61 v16 h-0.61 Z M32.52,27 h0.61 v16 h-0.61 Z M33.65,27 h0.33 v16 h-0.33 Z M34.5,27 h0.33 v16 h-0.33 Z"/><path d="M5.5634 47.0338Q5.3915 47.0338 5.2648 46.9408Q5.138 46.8479 5.069 46.6225Q5 46.3972 5 46Q5 45.6028 5.069 45.3775Q5.138 45.1521 5.2648 45.0592Q5.3915 44.9662 5.5634 44.9662Q5.7127 44.9662 5.8282 45.0394Q5.9437 45.1127 6.0113 45.2845Q6.0789 45.4563 6.0817 45.7549L5.7859 45.7662Q5.7746 45.4648 5.7239 45.3465Q5.6732 45.2282 5.5662 45.2282Q5.493 45.2282 5.4394 45.2845Q5.3859 45.3408 5.3563 45.4831Q5.3268 45.6254 5.3268 45.8789V46.1211Q5.3268 46.3718 5.3563 46.5141Q5.3859 46.6563 5.4408 46.7141Q5.4958 46.7718 5.569 46.7718Q5.6761 46.7718 5.7254 46.6535Q5.7746 46.5352 5.7859 46.2366L6.0817 46.2451Q6.0761 46.5493 6.007 46.7211Q5.938 46.893 5.8225 46.9634Q5.707 47.0338 5.5634 47.0338Z M7.0035 47.0338Q6.8204 47.0338 6.6923 46.938Q6.5641 46.8423 6.4965 46.6155Q6.4289 46.3887 6.4289 46Q6.4289 45.6056 6.4965 45.3803Q6.5641 45.1549 6.6923 45.0606Q6.8204 44.9662 7.0035 44.9662Q7.1866 44.9662 7.3148 45.0606Q7.443 45.1549 7.5106 45.3803Q7.5782 45.6056 7.5782 46Q7.5782 46.3887 7.5106 46.6155Q7.443 46.8423 7.3148 46.938Q7.1866 47.0338 7.0035 47.0338ZM7.0035 46.7718Q7.0824 46.7718 7.1359 46.7141Q7.1894 46.6563 7.219 46.5127Q7.2486 46.369 7.2486 46.1155V45.8817Q7.2486 45.6282 7.219 45.4859Q7.1894 45.3437 7.1359 45.2859Q7.0824 45.2282 7.0035 45.2282Q6.9246 45.2282 6.8697 45.2859Q6.8148 45.3437 6.7866 45.4859Q6.7585 45.6282 6.7585 45.8817V46.1155Q6.7585 46.369 6.7866 46.5113Q6.8148 46.6535 6.8697 46.7127Q6.9246 46.7718 7.0035 46.7718ZM7.0655 44.8507 6.8824 44.8 7.0852 44.3887 7.3049 44.4732 7.0655 44.8507Z M7.9789 47V45H8.438Q8.6183 45 8.7535 45.0944Q8.8887 45.1887 8.9634 45.407Q9.038 45.6254 9.038 46Q9.038 46.3746 8.9634 46.593Q8.8887 46.8113 8.7535 46.9056Q8.6183 47 8.438 47H7.9789ZM8.3 46.7296H8.4099Q8.5451 46.7296 8.6282 46.6127Q8.7113 46.4958 8.7113 46.1972V45.8028Q8.7113 45.6 8.6732 45.4845Q8.6352 45.369 8.5676 45.3197Q8.5 45.2704 8.4099 45.2704H8.3V46.7296Z M9.4359 47V45H9.757V47H9.4359Z M10.6423 47.0338Q10.4986 47.0338 10.3887 46.938Q10.2789 46.8423 10.2183 46.6169Q10.1577 46.3915 10.1577 46Q10.1577 45.6028 10.2268 45.3775Q10.2958 45.1521 10.4225 45.0592Q10.5493 44.9662 10.7211 44.9662Q10.8732 44.9662 10.9873 45.0394Q11.1014 45.1127 11.169 45.2761Q11.2366 45.4394 11.2394 45.7155L10.9437 45.7239Q10.9324 45.4563 10.8817 45.3423Q10.831 45.2282 10.7239 45.2282Q10.6507 45.2282 10.5972 45.2845Q10.5437 45.3408 10.5141 45.4831Q10.4845 45.6254 10.4845 45.8789V46.1211Q10.4845 46.3718 10.5141 46.5141Q10.5437 46.6563 10.5972 46.7141Q10.6507 46.7718 10.7239 46.7718Q10.8282 46.7718 10.8887 46.6704Q10.9493 46.569 10.9493 46.3408V46.2028H10.693V45.9408H11.2451V47H11.0113L10.9887 46.7972Q10.9239 46.9408 10.8352 46.9873Q10.7465 47.0338 10.6423 47.0338Z M12.2007 47.0338Q12.0176 47.0338 11.8894 46.938Q11.7613 46.8423 11.6937 46.6155Q11.6261 46.3887 11.6261 46Q11.6261 45.6056 11.6937 45.3803Q11.7613 45.1549 11.8894 45.0606Q12.0176 44.9662 12.2007 44.9662Q12.3838 44.9662 12.512 45.0606Q12.6401 45.1549 12.7077 45.3803Q12.7754 45.6056 12.7754 46Q12.7754 46.3887 12.7077 46.6155Q12.6401 46.8423 12.512 46.938Q12.3838 47.0338 12.2007 47.0338ZM12.2007 46.7718Q12.2796 46.7718 12.3331 46.7141Q12.3866 46.6563 12.4162 46.5127Q12.4458 46.369 12.4458 46.1155V45.8817Q12.4458 45.6282 12.4162 45.4859Q12.3866 45.3437 12.3331 45.2859Q12.2796 45.2282 12.2007 45.2282Q12.1218 45.2282 12.0669 45.2859Q12.012 45.3437 11.9838 45.4859Q11.9556 45.6282 11.9556 45.8817V46.1155Q11.9556 46.369 11.9838 46.5113Q12.012 46.6535 12.0669 46.7127Q12.1218 46.7718 12.2007 46.7718Z M13.7683 47V45H14.2275Q14.4077 45 14.543 45.0944Q14.6782 45.1887 14.7528 45.407Q14.8275 45.6254 14.8275 46Q14.8275 46.3746 14.7528 46.593Q14.6782 46.8113 14.543 46.9056Q14.4077 47 14.2275 47H13.7683ZM14.0894 46.7296H14.1993Q14.3345 46.7296 14.4176 46.6127Q14.5007 46.4958 14.5007 46.1972V45.8028Q14.5007 45.6 14.4627 45.4845Q14.4246 45.369 14.357 45.3197Q14.2894 45.2704 14.1993 45.2704H14.0894V46.7296Z M15.2254 47V45H16.1324V45.2704H15.5465V45.8479H16.0676V46.1042H15.5465V46.7296H16.1437V47H15.2254Z M17.1254 47V45H17.6296Q17.8972 45 18.0225 45.1408Q18.1479 45.2817 18.1479 45.5268Q18.1479 45.6704 18.093 45.7887Q18.038 45.907 17.9225 45.9718Q18.0521 46.0338 18.1113 46.1549Q18.1704 46.2761 18.1704 46.4423Q18.1704 46.6873 18.0423 46.8437Q17.9141 47 17.6408 47H17.1254ZM17.6042 45.2592H17.4465V45.8507H17.6042Q17.8324 45.8507 17.8324 45.6113V45.5042Q17.8324 45.2592 17.6042 45.2592ZM17.4465 46.7408H17.6155Q17.8465 46.7408 17.8465 46.4789V46.3606Q17.8465 46.107 17.6155 46.107H17.4465V46.7408Z M18.4246 47 18.8275 45H19.2556L19.6613 47H19.3345L19.2444 46.5183H18.8275L18.7401 47H18.4246ZM18.8725 46.262H19.1993L19.0359 45.3239L18.8725 46.262Z M19.9972 47V45H20.5042Q20.6986 45 20.8183 45.0718Q20.938 45.1437 20.993 45.2676Q21.0479 45.3915 21.0479 45.5493Q21.0479 45.7296 20.9817 45.8732Q20.9155 46.0169 20.7577 46.0789L21.0789 47H20.7268L20.4451 46.1296H20.3183V47H19.9972ZM20.4873 45.2592H20.3183V45.8732H20.4873Q20.6197 45.8732 20.6732 45.8042Q20.7268 45.7352 20.7268 45.6085V45.5099Q20.7268 45.3944 20.6718 45.3268Q20.6169 45.2592 20.4873 45.2592Z M21.4289 47V45H21.9359Q22.1303 45 22.25 45.0718Q22.3697 45.1437 22.4246 45.2676Q22.4796 45.3915 22.4796 45.5493Q22.4796 45.7296 22.4134 45.8732Q22.3472 46.0169 22.1894 46.0789L22.5106 47H22.1585L21.8768 46.1296H21.75V47H21.4289ZM21.919 45.2592H21.75V45.8732H21.919Q22.0514 45.8732 22.1049 45.8042Q22.1585 45.7352 22.1585 45.6085V45.5099Q22.1585 45.3944 22.1035 45.3268Q22.0486 45.2592 21.919 45.2592Z M22.7563 47 23.1592 45H23.5873L23.993 47H23.6662L23.5761 46.5183H23.1592L23.0718 47H22.7563ZM23.2042 46.262H23.531L23.3676 45.3239L23.2042 46.262Z M24.7627 47.0338Q24.4894 47.0338 24.3528 46.8648Q24.2162 46.6958 24.2359 46.369L24.5289 46.3549Q24.5232 46.5521 24.5754 46.662Q24.6275 46.7718 24.757 46.7746Q24.8387 46.7746 24.8838 46.7352Q24.9289 46.6958 24.9458 46.6352Q24.9627 46.5746 24.9627 46.5155Q24.9627 46.3915 24.9106 46.3183Q24.8585 46.2451 24.7599 46.169L24.5852 46.0423Q24.4444 45.938 24.3514 45.807Q24.2585 45.6761 24.2585 45.4761Q24.2585 45.231 24.3993 45.0986Q24.5401 44.9662 24.7542 44.9662Q24.9965 44.9662 25.1246 45.1085Q25.2528 45.2507 25.2472 45.5718L24.9542 45.5859Q24.9599 45.3944 24.9092 45.3085Q24.8585 45.2225 24.7514 45.2225Q24.6641 45.2225 24.6162 45.2831Q24.5683 45.3437 24.5683 45.4535Q24.5683 45.5634 24.619 45.6366Q24.6697 45.7099 24.7739 45.7887L24.9655 45.9296Q25.1035 46.0338 25.188 46.1634Q25.2725 46.293 25.2725 46.493Q25.2725 46.7718 25.1303 46.9028Q24.988 47.0338 24.7627 47.0338Z M26.2486 47V45H27.1472V45.2704H26.5697V45.8901H27.1106V46.1465H26.5697V47H26.2486Z M27.5141 47V45H27.8352V47H27.5141Z M28.7965 47.0338Q28.6246 47.0338 28.4979 46.9408Q28.3711 46.8479 28.3021 46.6225Q28.2331 46.3972 28.2331 46Q28.2331 45.6028 28.3021 45.3775Q28.3711 45.1521 28.4979 45.0592Q28.6246 44.9662 28.7965 44.9662Q28.9458 44.9662 29.0613 45.0394Q29.1768 45.1127 29.2444 45.2845Q29.312 45.4563 29.3148 45.7549L29.019 45.7662Q29.0077 45.4648 28.957 45.3465Q28.9063 45.2282 28.7993 45.2282Q28.7261 45.2282 28.6725 45.2845Q28.619 45.3408 28.5894 45.4831Q28.5599 45.6254 28.5599 45.8789V46.1211Q28.5599 46.3718 28.5894 46.5141Q28.619 46.6563 28.6739 46.7141Q28.7289 46.7718 28.8021 46.7718Q28.9092 46.7718 28.9585 46.6535Q29.0077 46.5352 29.019 46.2366L29.3148 46.2451Q29.3092 46.5493 29.2401 46.7211Q29.1711 46.893 29.0556 46.9634Q28.9401 47.0338 28.7965 47.0338Z M29.9127 47V45.2704H29.5577V45H30.5887V45.2704H30.2338V47H29.9127Z M30.9415 47V45H31.2627V47H30.9415ZM31.1641 44.8507 30.981 44.8 31.1838 44.3887 31.4035 44.4732 31.1641 44.8507Z M32.2239 47.0338Q32.0521 47.0338 31.9254 46.9408Q31.7986 46.8479 31.7296 46.6225Q31.6606 46.3972 31.6606 46Q31.6606 45.6028 31.7296 45.3775Q31.7986 45.1521 31.9254 45.0592Q32.0521 44.9662 32.2239 44.9662Q32.3732 44.9662 32.4887 45.0394Q32.6042 45.1127 32.6718 45.2845Q32.7394 45.4563 32.7423 45.7549L32.4465 45.7662Q32.4352 45.4648 32.3845 45.3465Q32.3338 45.2282 32.2268 45.2282Q32.1535 45.2282 32.1 45.2845Q32.0465 45.3408 32.0169 45.4831Q31.9873 45.6254 31.9873 45.8789V46.1211Q31.9873 46.3718 32.0169 46.5141Q32.0465 46.6563 32.1014 46.7141Q32.1563 46.7718 32.2296 46.7718Q32.3366 46.7718 32.3859 46.6535Q32.4352 46.5352 32.4465 46.2366L32.7423 46.2451Q32.7366 46.5493 32.6676 46.7211Q32.5986 46.893 32.4831 46.9634Q32.3676 47.0338 32.2239 47.0338Z M33.1317 47V45H33.4528V47H33.1317Z M34.4254 47.0338Q34.2423 47.0338 34.1141 46.938Q33.9859 46.8423 33.9183 46.6155Q33.8507 46.3887 33.8507 46Q33.8507 45.6056 33.9183 45.3803Q33.9859 45.1549 34.1141 45.0606Q34.2423 44.9662 34.4254 44.9662Q34.6085 44.9662 34.7366 45.0606Q34.8648 45.1549 34.9324 45.3803Q35 45.6056 35 46Q35 46.3887 34.9324 46.6155Q34.8648 46.8423 34.7366 46.938Q34.6085 47.0338 34.4254 47.0338ZM34.4254 46.7718Q34.5042 46.7718 34.5577 46.7141Q34.6113 46.6563 34.6408 46.5127Q34.6704 46.369 34.6704 46.1155V45.8817Q34.6704 45.6282 34.6408 45.4859Q34.6113 45.3437 34.5577 45.2859Q34.5042 45.2282 34.4254 45.2282Q34.3465 45.2282 34.2915 45.2859Q34.2366 45.3437 34.2085 45.4859Q34.1803 45.6282 34.1803 45.8817V46.1155Q34.1803 46.369 34.2085 46.5113Q34.2366 46.6535 34.2915 46.7127Q34.3465 46.7718 34.4254 46.7718Z"/><path d="M40.4877 43.5664Q40.339 43.5664 40.2292 43.486Q40.1195 43.4055 40.0597 43.2104Q40 43.0153 40 42.6715Q40 42.3276 40.0597 42.1325Q40.1195 41.9374 40.2292 41.857Q40.339 41.7765 40.4877 41.7765Q40.617 41.7765 40.717 41.8399Q40.8169 41.9033 40.8755 42.0521Q40.934 42.2008 40.9364 42.4593L40.6804 42.4691Q40.6706 42.2081 40.6267 42.1057Q40.5828 42.0033 40.4902 42.0033Q40.4268 42.0033 40.3804 42.0521Q40.3341 42.1008 40.3085 42.224Q40.2829 42.3471 40.2829 42.5666V42.7763Q40.2829 42.9934 40.3085 43.1165Q40.3341 43.2397 40.3816 43.2896Q40.4292 43.3396 40.4926 43.3396Q40.5853 43.3396 40.6279 43.2372Q40.6706 43.1348 40.6804 42.8763L40.9364 42.8836Q40.9316 43.147 40.8718 43.2957Q40.8121 43.4445 40.7121 43.5055Q40.6121 43.5664 40.4877 43.5664Z M41.1827 43.5372 41.5314 41.8058H41.9021L42.2533 43.5372H41.9704L41.8924 43.1202H41.5314L41.4559 43.5372H41.1827ZM41.5705 42.8983H41.8533L41.7119 42.0862L41.5705 42.8983Z M42.5752 43.5372V41.8058H43.0141Q43.1824 41.8058 43.286 41.8679Q43.3897 41.9301 43.4372 42.0374Q43.4848 42.1447 43.4848 42.2813Q43.4848 42.4374 43.4275 42.5617Q43.3702 42.6861 43.2336 42.7397L43.5116 43.5372H43.2068L42.9629 42.7836H42.8532V43.5372H42.5752ZM42.9995 42.0301H42.8532V42.5617H42.9995Q43.1141 42.5617 43.1604 42.502Q43.2068 42.4422 43.2068 42.3325V42.2471Q43.2068 42.1472 43.1592 42.0886Q43.1117 42.0301 42.9995 42.0301Z M44.0408 43.5372V42.0399H43.7335V41.8058H44.6261V42.0399H44.3188V43.5372H44.0408Z M45.4113 43.5664Q45.1894 43.5664 45.0735 43.4506Q44.9577 43.3348 44.9577 43.0982V41.8058H45.2357V43.0982Q45.2357 43.325 45.4186 43.325Q45.6039 43.325 45.6039 43.0982V41.8058H45.8697V43.0982Q45.8697 43.3348 45.7527 43.4506Q45.6356 43.5664 45.4113 43.5664Z M46.7306 43.5664Q46.5818 43.5664 46.4721 43.486Q46.3623 43.4055 46.3026 43.2104Q46.2429 43.0153 46.2429 42.6715Q46.2429 42.3276 46.3026 42.1325Q46.3623 41.9374 46.4721 41.857Q46.5818 41.7765 46.7306 41.7765Q46.8598 41.7765 46.9598 41.8399Q47.0598 41.9033 47.1183 42.0521Q47.1768 42.2008 47.1793 42.4593L46.9232 42.4691Q46.9135 42.2081 46.8696 42.1057Q46.8257 42.0033 46.733 42.0033Q46.6696 42.0033 46.6233 42.0521Q46.5769 42.1008 46.5513 42.224Q46.5257 42.3471 46.5257 42.5666V42.7763Q46.5257 42.9934 46.5513 43.1165Q46.5769 43.2397 46.6245 43.2896Q46.672 43.3396 46.7355 43.3396Q46.8281 43.3396 46.8708 43.2372Q46.9135 43.1348 46.9232 42.8763L47.1793 42.8836Q47.1744 43.147 47.1147 43.2957Q47.0549 43.4445 46.9549 43.5055Q46.8549 43.5664 46.7306 43.5664Z M47.5475 43.5372V41.8058H47.8255V42.5471H48.1694V41.8058H48.4474V43.5372H48.1694V42.7812H47.8255V43.5372H47.5475Z M49.3228 43.5664Q49.1643 43.5664 49.0534 43.4835Q48.9424 43.4006 48.8839 43.2043Q48.8253 43.008 48.8253 42.6715Q48.8253 42.3301 48.8839 42.135Q48.9424 41.9399 49.0534 41.8582Q49.1643 41.7765 49.3228 41.7765Q49.4813 41.7765 49.5923 41.8582Q49.7032 41.9399 49.7618 42.135Q49.8203 42.3301 49.8203 42.6715Q49.8203 43.008 49.7618 43.2043Q49.7032 43.4006 49.5923 43.4835Q49.4813 43.5664 49.3228 43.5664ZM49.3228 43.3396Q49.3911 43.3396 49.4374 43.2896Q49.4838 43.2397 49.5094 43.1153Q49.535 42.9909 49.535 42.7714V42.569Q49.535 42.3496 49.5094 42.2264Q49.4838 42.1033 49.4374 42.0533Q49.3911 42.0033 49.3228 42.0033Q49.2545 42.0033 49.207 42.0533Q49.1594 42.1033 49.135 42.2264Q49.1107 42.3496 49.1107 42.569V42.7714Q49.1107 42.9909 49.135 43.1141Q49.1594 43.2372 49.207 43.2884Q49.2545 43.3396 49.3228 43.3396Z M50.7226 42.8251V42.5593H50.9933V42.8251H50.7226Z M51.9297 43.5372V41.8058H52.3687Q52.6052 41.8058 52.7162 41.9484Q52.8271 42.0911 52.8271 42.3301Q52.8271 42.569 52.7162 42.7141Q52.6052 42.8592 52.3687 42.8592H52.2077V43.5372H51.9297ZM52.354 42.0301H52.2077V42.6373H52.354Q52.5491 42.6373 52.5491 42.3983V42.2691Q52.5491 42.0301 52.354 42.0301Z M52.9856 43.5372 53.3343 41.8058H53.705L54.0562 43.5372H53.7733L53.6953 43.1202H53.3343L53.2587 43.5372H52.9856ZM53.3734 42.8983H53.6562L53.5148 42.0862L53.3734 42.8983Z M54.3781 43.5372V41.8058H54.817Q55.0536 41.8058 55.1645 41.9484Q55.2755 42.0911 55.2755 42.3301Q55.2755 42.569 55.1645 42.7141Q55.0536 42.8592 54.817 42.8592H54.6561V43.5372H54.3781ZM54.8024 42.0301H54.6561V42.6373H54.8024Q54.9975 42.6373 54.9975 42.3983V42.2691Q54.9975 42.0301 54.8024 42.0301Z M55.6169 43.5372V41.8058H56.4021V42.0399H55.8949V42.5398H56.346V42.7617H55.8949V43.3031H56.4119V43.5372H55.6169Z M56.7801 43.5372V41.8058H57.0581V43.3031H57.5507V43.5372H56.7801Z M58.3701 42.8251V42.5593H58.6408V42.8251H58.3701Z M59.5772 43.5372V41.8058H60.0161Q60.1844 41.8058 60.2881 41.8679Q60.3917 41.9301 60.4392 42.0374Q60.4868 42.1447 60.4868 42.2813Q60.4868 42.4374 60.4295 42.5617Q60.3722 42.6861 60.2356 42.7397L60.5136 43.5372H60.2088L59.9649 42.7836H59.8552V43.5372H59.5772ZM60.0015 42.0301H59.8552V42.5617H60.0015Q60.1161 42.5617 60.1625 42.502Q60.2088 42.4422 60.2088 42.3325V42.2471Q60.2088 42.1472 60.1612 42.0886Q60.1137 42.0301 60.0015 42.0301Z M60.8477 43.5372V41.8058H61.6329V42.0399H61.1257V42.5398H61.5769V42.7617H61.1257V43.3031H61.6427V43.5372H60.8477Z M62.4426 43.5664Q62.2938 43.5664 62.1841 43.486Q62.0743 43.4055 62.0146 43.2104Q61.9548 43.0153 61.9548 42.6715Q61.9548 42.3276 62.0146 42.1325Q62.0743 41.9374 62.1841 41.857Q62.2938 41.7765 62.4426 41.7765Q62.5718 41.7765 62.6718 41.8399Q62.7718 41.9033 62.8303 42.0521Q62.8888 42.2008 62.8913 42.4593L62.6352 42.4691Q62.6255 42.2081 62.5816 42.1057Q62.5377 42.0033 62.445 42.0033Q62.3816 42.0033 62.3353 42.0521Q62.2889 42.1008 62.2633 42.224Q62.2377 42.3471 62.2377 42.5666V42.7763Q62.2377 42.9934 62.2633 43.1165Q62.2889 43.2397 62.3365 43.2896Q62.384 43.3396 62.4474 43.3396Q62.5401 43.3396 62.5828 43.2372Q62.6255 43.1348 62.6352 42.8763L62.8913 42.8836Q62.8864 43.147 62.8266 43.2957Q62.7669 43.4445 62.6669 43.5055Q62.5669 43.5664 62.4426 43.5664Z M63.2595 43.5372V41.8058H63.5375V43.5372H63.2595Z M64.4008 43.5664Q64.252 43.5664 64.1423 43.486Q64.0325 43.4055 63.9728 43.2104Q63.9131 43.0153 63.9131 42.6715Q63.9131 42.3276 63.9728 42.1325Q64.0325 41.9374 64.1423 41.857Q64.252 41.7765 64.4008 41.7765Q64.53 41.7765 64.63 41.8399Q64.73 41.9033 64.7885 42.0521Q64.847 42.2008 64.8495 42.4593L64.5934 42.4691Q64.5837 42.2081 64.5398 42.1057Q64.4959 42.0033 64.4032 42.0033Q64.3398 42.0033 64.2935 42.0521Q64.2471 42.1008 64.2215 42.224Q64.1959 42.3471 64.1959 42.5666V42.7763Q64.1959 42.9934 64.2215 43.1165Q64.2471 43.2397 64.2947 43.2896Q64.3422 43.3396 64.4057 43.3396Q64.4983 43.3396 64.541 43.2372Q64.5837 43.1348 64.5934 42.8763L64.8495 42.8836Q64.8446 43.147 64.7849 43.2957Q64.7251 43.4445 64.6251 43.5055Q64.5251 43.5664 64.4008 43.5664Z M65.2177 43.5372V41.8058H65.4957V43.3031H65.9883V43.5372H65.2177Z M66.3248 43.5372V41.8058H67.1101V42.0399H66.6028V42.5398H67.054V42.7617H66.6028V43.3031H67.1198V43.5372H66.3248Z"/><path d="M40.4877 47.0293Q40.339 47.0293 40.2292 46.9488Q40.1195 46.8683 40.0597 46.6732Q40 46.4781 40 46.1343Q40 45.7904 40.0597 45.5954Q40.1195 45.4003 40.2292 45.3198Q40.339 45.2393 40.4877 45.2393Q40.617 45.2393 40.717 45.3027Q40.8169 45.3661 40.8755 45.5149Q40.934 45.6636 40.9364 45.9221L40.6804 45.9319Q40.6706 45.671 40.6267 45.5685Q40.5828 45.4661 40.4902 45.4661Q40.4268 45.4661 40.3804 45.5149Q40.3341 45.5637 40.3085 45.6868Q40.2829 45.81 40.2829 46.0294V46.2392Q40.2829 46.4562 40.3085 46.5793Q40.3341 46.7025 40.3816 46.7525Q40.4292 46.8025 40.4926 46.8025Q40.5853 46.8025 40.6279 46.7001Q40.6706 46.5976 40.6804 46.3391L40.9364 46.3465Q40.9316 46.6098 40.8718 46.7586Q40.8121 46.9073 40.7121 46.9683Q40.6121 47.0293 40.4877 47.0293Z M41.1827 47 41.5314 45.2686H41.9021L42.2533 47H41.9704L41.8924 46.583H41.5314L41.4559 47H41.1827ZM41.5705 46.3611H41.8533L41.7119 45.549L41.5705 46.3611ZM41.7777 45.1393 41.6192 45.0954 41.7948 44.7394 41.985 44.8126 41.7777 45.1393Z M42.5752 47V45.2686H43.0141Q43.2507 45.2686 43.3616 45.4112Q43.4726 45.5539 43.4726 45.7929Q43.4726 46.0319 43.3616 46.177Q43.2507 46.3221 43.0141 46.3221H42.8532V47H42.5752ZM42.9995 45.4929H42.8532V46.1002H42.9995Q43.1946 46.1002 43.1946 45.8612V45.7319Q43.1946 45.4929 42.9995 45.4929Z M44.2188 47.0293Q43.9823 47.0293 43.864 46.8829Q43.7457 46.7366 43.7628 46.4538L44.0164 46.4416Q44.0115 46.6123 44.0566 46.7074Q44.1017 46.8025 44.2139 46.8049Q44.2846 46.8049 44.3237 46.7708Q44.3627 46.7366 44.3773 46.6842Q44.3919 46.6318 44.3919 46.5806Q44.3919 46.4733 44.3468 46.4099Q44.3017 46.3465 44.2164 46.2806L44.0652 46.1709Q43.9432 46.0806 43.8628 45.9672Q43.7823 45.8539 43.7823 45.6807Q43.7823 45.4686 43.9042 45.3539Q44.0262 45.2393 44.2115 45.2393Q44.4212 45.2393 44.5322 45.3625Q44.6431 45.4856 44.6382 45.7636L44.3846 45.7758Q44.3895 45.61 44.3456 45.5356Q44.3017 45.4612 44.209 45.4612Q44.1335 45.4612 44.092 45.5137Q44.0505 45.5661 44.0505 45.6612Q44.0505 45.7563 44.0944 45.8197Q44.1383 45.8831 44.2286 45.9514L44.3944 46.0733Q44.5139 46.1636 44.587 46.2757Q44.6602 46.3879 44.6602 46.561Q44.6602 46.8025 44.537 46.9159Q44.4139 47.0293 44.2188 47.0293Z M45.4723 47.0293Q45.2503 47.0293 45.1345 46.9134Q45.0187 46.7976 45.0187 46.561V45.2686H45.2967V46.561Q45.2967 46.7878 45.4796 46.7878Q45.6649 46.7878 45.6649 46.561V45.2686H45.9307V46.561Q45.9307 46.7976 45.8137 46.9134Q45.6966 47.0293 45.4723 47.0293Z M46.3404 47V45.2686H46.6184V46.7659H47.111V47H46.3404Z M47.3573 47 47.706 45.2686H48.0767L48.4279 47H48.145L48.0669 46.583H47.706L47.6304 47H47.3573ZM47.745 46.3611H48.0279L47.8865 45.549L47.745 46.3611Z M49.2326 46.2879V46.0221H49.5033V46.2879H49.2326Z M50.308 47 50.6567 45.2686H51.0274L51.3786 47H51.0957L51.0177 46.583H50.6567L50.5811 47H50.308ZM50.6958 46.3611H50.9786L50.8372 45.549L50.6958 46.3611Z M51.7005 47V45.2686H51.9785V46.7659H52.4711V47H51.7005Z M53.2124 47.0293Q52.9905 47.0293 52.8747 46.9134Q52.7588 46.7976 52.7588 46.561V45.2686H53.0368V46.561Q53.0368 46.7878 53.2197 46.7878Q53.4051 46.7878 53.4051 46.561V45.2686H53.6709V46.561Q53.6709 46.7976 53.5538 46.9134Q53.4368 47.0293 53.2124 47.0293Z M54.0781 47V45.2686H54.5122L54.7048 46.6562H54.7097L54.9024 45.2686H55.3218V47H55.0706V45.5222L55.0633 45.5198L54.8365 47H54.5585L54.3317 45.5222H54.322V47H54.0781Z M55.7364 47V45.2686H56.0144V47H55.7364ZM55.929 45.1393 55.7705 45.0954 55.9461 44.7394 56.1363 44.8126 55.929 45.1393Z M56.4265 47V45.2686H56.7021L57.0435 46.3221H57.0459V45.2686H57.2849V47H57.0435L56.6679 45.8563H56.6655V47H56.4265Z M57.6995 47V45.2686H57.9775V47H57.6995Z M58.8505 47.0293Q58.692 47.0293 58.581 46.9464Q58.4701 46.8634 58.4115 46.6671Q58.353 46.4708 58.353 46.1343Q58.353 45.7929 58.4115 45.5978Q58.4701 45.4027 58.581 45.321Q58.692 45.2393 58.8505 45.2393Q59.009 45.2393 59.12 45.321Q59.2309 45.4027 59.2894 45.5978Q59.348 45.7929 59.348 46.1343Q59.348 46.4708 59.2894 46.6671Q59.2309 46.8634 59.12 46.9464Q59.009 47.0293 58.8505 47.0293ZM58.8505 46.8025Q58.9188 46.8025 58.9651 46.7525Q59.0114 46.7025 59.037 46.5781Q59.0626 46.4538 59.0626 46.2343V46.0319Q59.0626 45.8124 59.037 45.6892Q59.0114 45.5661 58.9651 45.5161Q58.9188 45.4661 58.8505 45.4661Q58.7822 45.4661 58.7347 45.5161Q58.6871 45.5661 58.6627 45.6892Q58.6383 45.8124 58.6383 46.0319V46.2343Q58.6383 46.4538 58.6627 46.5769Q58.6871 46.7001 58.7347 46.7513Q58.7822 46.8025 58.8505 46.8025Z M60.2503 46.2879V46.0221H60.5209V46.2879H60.2503Z M61.4574 47V45.2686H61.8963Q62.0646 45.2686 62.1682 45.3308Q62.2719 45.393 62.3194 45.5003Q62.367 45.6076 62.367 45.7441Q62.367 45.9002 62.3097 46.0246Q62.2524 46.1489 62.1158 46.2026L62.3938 47H62.089L61.8451 46.2465H61.7354V47H61.4574ZM61.8817 45.4929H61.7354V46.0246H61.8817Q61.9963 46.0246 62.0426 45.9648Q62.089 45.9051 62.089 45.7953V45.71Q62.089 45.61 62.0414 45.5515Q61.9939 45.4929 61.8817 45.4929Z M62.7279 47V45.2686H63.5131V45.5027H63.0059V46.0026H63.457V46.2245H63.0059V46.7659H63.5229V47H62.7279Z M64.3227 47.0293Q64.174 47.0293 64.0642 46.9488Q63.9545 46.8683 63.8948 46.6732Q63.835 46.4781 63.835 46.1343Q63.835 45.7904 63.8948 45.5954Q63.9545 45.4003 64.0642 45.3198Q64.174 45.2393 64.3227 45.2393Q64.452 45.2393 64.552 45.3027Q64.652 45.3661 64.7105 45.5149Q64.769 45.6636 64.7714 45.9221L64.5154 45.9319Q64.5056 45.671 64.4617 45.5685Q64.4178 45.4661 64.3252 45.4661Q64.2618 45.4661 64.2154 45.5149Q64.1691 45.5637 64.1435 45.6868Q64.1179 45.81 64.1179 46.0294V46.2392Q64.1179 46.4562 64.1435 46.5793Q64.1691 46.7025 64.2167 46.7525Q64.2642 46.8025 64.3276 46.8025Q64.4203 46.8025 64.463 46.7001Q64.5056 46.5976 64.5154 46.3391L64.7714 46.3465Q64.7666 46.6098 64.7068 46.7586Q64.6471 46.9073 64.5471 46.9683Q64.4471 47.0293 64.3227 47.0293Z M65.1397 47V45.2686H65.4177V47H65.1397Z M66.2809 47.0293Q66.1322 47.0293 66.0225 46.9488Q65.9127 46.8683 65.853 46.6732Q65.7932 46.4781 65.7932 46.1343Q65.7932 45.7904 65.853 45.5954Q65.9127 45.4003 66.0225 45.3198Q66.1322 45.2393 66.2809 45.2393Q66.4102 45.2393 66.5102 45.3027Q66.6102 45.3661 66.6687 45.5149Q66.7272 45.6636 66.7297 45.9221L66.4736 45.9319Q66.4638 45.671 66.4199 45.5685Q66.3761 45.4661 66.2834 45.4661Q66.22 45.4661 66.1736 45.5149Q66.1273 45.5637 66.1017 45.6868Q66.0761 45.81 66.0761 46.0294V46.2392Q66.0761 46.4562 66.1017 46.5793Q66.1273 46.7025 66.1749 46.7525Q66.2224 46.8025 66.2858 46.8025Q66.3785 46.8025 66.4212 46.7001Q66.4638 46.5976 66.4736 46.3391L66.7297 46.3465Q66.7248 46.6098 66.665 46.7586Q66.6053 46.9073 66.5053 46.9683Q66.4053 47.0293 66.2809 47.0293Z M67.0979 47V45.2686H67.3759V46.7659H67.8685V47H67.0979Z M68.205 47V45.2686H68.9902V45.5027H68.483V46.0026H68.9342V46.2245H68.483V46.7659H69V47H68.205Z"/></g></svg>